<?xml version="1.0" standalone="no"?>
<!DOCTYPE svg PUBLIC "-//W3C//DTD SVG 1.1//EN" "http://www.w3.org/Graphics/SVG/1.1/DTD/svg11.dtd" >
<!--
2013-9-30: Created.
-->
<svg>
<metadata>
Created by iconfont
</metadata>
<defs>

<font id="iconfont" horiz-adv-x="1024" >
  <font-face
    font-family="iconfont"
    font-weight="500"
    font-stretch="normal"
    units-per-em="1024"
    ascent="896"
    descent="-128"
  />
    <missing-glyph />
    
    <glyph glyph-name="x" unicode="x" horiz-adv-x="1001"
d="M281 543q-27 -1 -53 -1h-83q-18 0 -36.5 -6t-32.5 -18.5t-23 -32t-9 -45.5v-76h912v41q0 16 -0.5 30t-0.5 18q0 13 -5 29t-17 29.5t-31.5 22.5t-49.5 9h-133v-97h-438v97zM955 310v-52q0 -23 0.5 -52t0.5 -58t-10.5 -47.5t-26 -30t-33 -16t-31.5 -4.5q-14 -1 -29.5 -0.5
t-29.5 0.5h-32l-45 128h-439l-44 -128h-29h-34q-20 0 -45 1q-25 0 -41 9.5t-25.5 23t-13.5 29.5t-4 30v167h911zM163 247q-12 0 -21 -8.5t-9 -21.5t9 -21.5t21 -8.5q13 0 22 8.5t9 21.5t-9 21.5t-22 8.5zM316 123q-8 -26 -14 -48q-5 -19 -10.5 -37t-7.5 -25t-3 -15t1 -14.5
t9.5 -10.5t21.5 -4h37h67h81h80h64h36q23 0 34 12t2 38q-5 13 -9.5 30.5t-9.5 34.5q-5 19 -11 39h-368zM336 498v228q0 11 2.5 23t10 21.5t20.5 15.5t34 6h188q31 0 51.5 -14.5t20.5 -52.5v-227h-327z" />
    

    
    <glyph glyph-name="jiayongdianqi" unicode="&#58905;" d="M384.277504 871.403827 124.906802 871.403827c-60.50857 0-109.732557-49.232282-109.732557-109.728051l0-738.190579c0-60.478464 49.226138-109.730099 109.732557-109.730099L384.277455-86.244902c60.509594 0 109.734605 49.252762 109.734605 109.731123L494.01206 761.674689C494.014157 822.169498 444.788019 871.403827 384.277504 871.403827zM434.157466 23.485133c0-27.512627-22.375526-49.878016-49.880064-49.878016L124.906802-26.392883c-27.50249 0-49.880064 22.365389-49.880064 49.878016L75.026738 761.674689c0 27.508531 22.378598 49.878016 49.880064 49.878016L384.277455 811.552705c27.505562 0 49.880064-22.368461 49.880064-49.878016L434.157519 23.485133zM903.022899 871.403827 643.651178 871.403827c-60.506522 0-109.733581-49.232282-109.733581-109.728051l0-738.190579c0-60.478464 49.227162-109.730099 109.733581-109.730099L903.022854-86.244902c60.50857 0 109.732557 49.252762 109.732557 109.731123L1012.755411 761.674689C1012.75648 822.169498 963.531366 871.403827 903.022899 871.403827zM952.899789 23.485133c0-27.512627-22.374502-49.878016-49.876992-49.878016L643.651178-26.392883c-27.501466 0-49.87904 22.365389-49.87904 49.878016L593.772138 352.68376l359.128675 0L952.900813 23.485133 952.899789 23.485133zM952.899789 412.533862 593.772167 412.533862 593.772167 761.674689c0 27.508531 22.377574 49.878016 49.87904 49.878016L903.022854 811.552705c27.50249 0 49.876992-22.368461 49.876992-49.878016L952.899846 412.53387zM114.9312 771.648819l279.322829 0 0-59.849114-279.322829 0 0 59.849114ZM114.9312 671.894938l279.322829 0 0-59.850138-279.322829 0 0 59.850138ZM114.9312 572.144026l279.322829 0 0-59.855258-279.322829 0 0 59.855258ZM675.245056 522.265088c-19.298304 0-34.912563-15.644262-34.912563-34.914202s15.614259-34.91113 34.912563-34.91113c19.270656 0 34.913587 15.642214 34.913587 34.91113S694.515712 522.265088 675.245056 522.265088zM675.245056 232.96512c19.270656 0 34.913587 15.66679 34.913587 34.915226 0 19.288269-15.642931 34.913178-34.913587 34.912154-19.298304 0-34.912563-15.625933-34.912563-34.912154C640.332493 248.63191 655.946752 232.96512 675.245056 232.96512z"  horiz-adv-x="1024" />

    
    <glyph glyph-name="gengduo" unicode="&#58880;" d="M121.7444 504.2432c-65.493 0-118.5894-53.0729-118.5894-118.5894 0-65.493 53.0964-118.5659 118.5894-118.5659s118.5894 53.0729 118.5894 118.5659C240.3338 451.1693 187.2374 504.2432 121.7444 504.2432zM499.9741 504.2432c-65.493 0-118.5894-53.0729-118.5894-118.5894 0-65.493 53.0964-118.5659 118.5894-118.5659s118.5894 53.0729 118.5894 118.5659C618.5636 451.1693 565.4671 504.2432 499.9741 504.2432zM901.845 504.2432c-65.493 0-118.5905-53.0729-118.5905-118.5894 0-65.493 53.0975-118.5659 118.5905-118.5659s118.5894 53.0729 118.5894 118.5659C1020.4334 451.1693 967.338 504.2432 901.845 504.2432z"  horiz-adv-x="1024" />

    
    <glyph glyph-name="xiajiantou" unicode="&#58917;" d="M69.264384 523.761408 68.657152 523.761408-0.917504 454.682368 510.718976-53.297408 1022.30528 454.632192 952.677376 523.761408 952.175616 523.761408 952.17664 523.761408 510.718976 85.460736 69.264384 523.761408Z"  horiz-adv-x="1024" />

    
    <glyph glyph-name="shouye" unicode="&#58887;" d="M1011.34336 336.640768 535.425024 744.571648c-13.30176 11.385856-32.88576 11.385856-46.18752 0L13.319168 336.640768c-11.270144-9.653248-15.335424-25.311232-10.184704-39.236608 5.15072-13.925376 18.429952-23.161856 33.278976-23.161856L178.301952 274.242304l0-392.572928c0-19.582976 15.88736-35.473408 35.472384-35.473408l189.185024 0c19.582976 0 35.47136 15.890432 35.47136 35.473408l0 176.78336 165.536768 0 0-176.78336c0-19.582976 15.890432-35.473408 35.473408-35.473408l189.185024 0c19.582976 0 35.473408 15.890432 35.473408 35.473408L864.099328 275.379968l117.547008 0c12.055552-1.660928 24.957952 3.31776 33.532928 13.287424C1027.924992 303.539968 1026.21696 323.891968 1011.34336 336.640768zM793.151488-82.859264 674.912256-82.859264 674.912256 93.92512c0 19.582976-15.890432 35.472384-35.473408 35.472384L402.95936 129.397504c-19.585024 0-35.473408-15.889408-35.473408-35.472384l0-176.784384L249.244672-82.859264 249.244672 309.71264c0 19.585024-15.88736 35.472384-35.47136 35.472384l-81.475584 0 380.033024 325.73952 376.306688-322.551808-72.174592 0c-8.866816 0-24.387584-6.15424-24.387584-22.909952 0-20.72576 0-50.08384 0-50.08384l1.076224 0L793.151488-82.859264z"  horiz-adv-x="1024" />

    
    <glyph glyph-name="jiantouyou" unicode="&#58906;" d="M227.995823-153.172173l55.053059-55.050804 508.518058 508.606717L283.048882 808.930081l-55.053059-55.050804 453.561194-453.528284L227.995823-153.172173zM227.995823-153.172173"  horiz-adv-x="1024" />

    
    <glyph glyph-name="dianhua" unicode="&#58938;" d="M993.540013 45.915118l-3.938871 5.732561c2.110146-1.984191-10.438161 12.618389-10.438161 12.618389s-11.779772 13.775748-42.675706 39.318494c-25.398503 20.996197-57.116186 45.144176-81.849512 61.45977-30.043484 19.819394-50.961764 32.584116-49.647784 31.731702l-22.065454 11.037381c-9.674743 4.786003-25.829333 5.307889-37.235582 1.379417-10.307173-3.549849-19.37814-11.622712-23.588198-18.97005 1.804165 3.320629-7.154234-6.52767-25.372919-39.003316-7.808154-14.175861-16.967129-34.189683-27.992693-53.848419-14.960341-26.675546-53.757554-53.070706-92.417638-31.18628-49.066522 27.77253-112.131436 66.098417-176.87669 127.601166C324.39247 264.988602 283.36845 319.596314 260.06679 371.541383c-8.482541 18.910699-4.627585 58.512648 26.371708 73.620741 30.620653 14.923898 48.238632 18.689664 67.581978 30.30112 17.512574 10.921747 14.050584 7.27673 34.477656 20.694321 0.824819 0.600681 7.362997 6.291287 8.274801 6.898107 0 0 1.522744 1.542122 2.757926 2.758834 12.828705 12.163017 16.071698 28.288277 9.653253 44.148499l-2.757926 8.277524c0 0-14.735204 33.45188-37.235582 71.741951-11.924064 20.290115-29.265739 45.538149-42.752457 63.463404-36.500817 48.518017-68.955312 63.463404-68.955312 63.463404s-9.095527 4.792143-13.791676 6.898107c-18.499083 7.798617-34.913603 5.51255-51.027259-1.379417-34.902346-12.894681-54.780903-30.523177-81.75741-52.699246C51.94418 661.258811 10.622364 593.920146 18.871582 535.133252c12.852242-91.943039 128.256349-294.433846 279.149181-437.648618 150.93786-143.236262 364.322531-252.835426 461.043352-264.931928 64.999045-8.280594 120.058299 24.922622 174.867856 75.433016 19.298318 17.785062 44.513641 46.931892 57.481522 74.673723C998.705879-1.742299 1005.825319 28.46263 993.540013 45.915118z"  horiz-adv-x="1024" />

    
    <glyph glyph-name="unie64e" unicode="&#58934;" d="M-52.89 852.89v0 0zM520.827 168.844q-47.451 0-59.596-47.451-3.318-12.145-3.318-27.574 0-66.198 51.865-72.836l11.050-1.094q46.356 0 59.596 44.132 3.318 14.334 3.318 29.798 0 64.010-48.545 72.836-6.638 2.224-14.334 2.224zM688.528 581.46q14.334-48.545 15.463-83.851t-5.508-52.958-20.407-28.139-23.161-12.145-20.407-1.659q-48.545-1.094-77.778 23.161t-36.4 62.35-3.847 82.756 15.994 84.945 26.48 68.951 24.819 34.211q-1.094 0-12.675-1.094t-23.725-2.753-31.457-6.073-38.060-11.050-42.473-18.747-45.227-27.574-45.227-38.624-44.697-50.77q-30.893-45.227-38.060-92.112t0-78.342 12.145-59.031-7.167-45.227-50.77-27.574q-25.385-4.414-40.284 12.675t-18.747 44.132-3.318 51.865 4.978 42.473q-17.652 1.094-54.052-59.596-70.611-116.967-77.248-244.95-11.050-212.928 185.355-301.193 124.665-55.182 327.67-55.182 328.801-2.224 422.573 184.259 67.293 131.301 3.318 312.242-50.77 143.446-148.955 231.711-68.422 59.596-129.077 62.879zM357.537-36.387h-60.69v105.917h-108.141v-105.917h-60.69v264.791h60.69v-105.917h108.141v105.917h60.69v-264.791zM614.069-1.082q-34.741-35.306-95.431-35.306t-95.431 35.871-34.741 96.526q0 61.785 34.741 97.090t95.431 35.306 95.431-35.306 34.741-97.090-34.741-97.090zM909.188 173.258h-91.583v-209.645h-61.785v209.645h-91.583v55.182h244.95v-55.182z"  horiz-adv-x="1024" />

    
    <glyph glyph-name="29" unicode="&#58911;" d="M929.171 115.636C928.371-9.492 737.683-115.071 512-115.071S95.629-9.492 94.829 115.636c-9.836 8.606-19.062 17.523-27.646 26.753C65.757 133.845 65 125.177 65 116.415 65-29.091 265.131-147 512-147c246.868 0 447 117.909 447 263.415 0 8.762-0.757 17.43-2.183 25.974C948.232 133.159 939.007 124.242 929.171 115.636zM929.171 291.246C928.371 166.117 737.683 60.539 512 60.539S95.629 166.117 94.829 291.246c-9.836 8.605-19.062 17.523-27.646 26.753C65.757 309.456 65 300.787 65 292.024c0-145.504 200.131-263.415 447-263.415 246.868 0 447 117.911 447 263.415 0 8.763-0.757 17.432-2.183 25.975C948.232 308.77 939.007 299.852 929.171 291.246zM512 220.185c246.868 0 447 117.91 447 263.416C959 629.059 758.868 747 512 747 265.131 747 65 629.059 65 483.6 65 338.095 265.131 220.185 512 220.185zM512 715.071c226.148 0 417.2-106 417.2-231.471 0-125.472-191.052-231.487-417.2-231.487S94.8 358.128 94.8 483.6C94.8 609.072 285.852 715.071 512 715.071z"  horiz-adv-x="1024" />

    
    <glyph glyph-name="shuoming" unicode="&#58925;" d="M512.020951 685.791309c-212.610525 0-384.995171-172.342745-384.995171-384.995171 0-212.568623 172.342745-384.995171 384.995171-384.995171 212.526721 0 384.995171 172.342745 384.995171 384.995171C897.016122 513.448564 724.547672 685.791309 512.020951 685.791309zM512.020951-26.541943c-180.765038 0-327.379982 146.53114-327.379982 327.379982 0 180.765038 146.573042 327.379982 327.379982 327.379982s327.379982-146.53114 327.379982-327.379982C839.400933 119.989197 692.785989-26.541943 512.020951-26.541943zM476.236681 425.077339 476.236681 492.707096l73.077011 0 0-67.587855L476.236681 425.119241zM476.236681 111.441198l0 276.217694 73.077011 0 0-276.217694L476.236681 111.441198z"  horiz-adv-x="1024" />

    
    <glyph glyph-name="msnui-service-call" unicode="&#59015;" d="M938.1 96.501c-58.889 0-106.548 47.659-106.548 106.457v121.795c0 42.363 25.016 78.701 60.898 95.865v10.591h3.013c-1.735 4.839-3.013 9.861-3.013 15.247 0 25.199 20.451 45.65 45.65 45.65s45.65-20.451 45.65-45.65c0-5.386-1.369-10.408-3.104-15.247h3.104v-10.591c35.881-17.164 60.807-53.502 60.807-95.865v-121.795c0-58.798-47.659-106.457-106.457-106.457zM953.256 568.161c0-25.199-20.451-45.65-45.65-45.65s-45.65 20.451-45.65 45.65c0 0.365 0.274 0.731 0.274 1.096-52.68 115.86-168.997 196.753-304.579 196.753-184.884 0-334.799-149.915-334.799-334.799v-10.591c35.881-17.164 60.898-53.502 60.898-95.865v-121.795c0-58.798-47.659-106.457-106.548-106.457-58.798 0-106.457 47.659-106.457 106.457v121.795c0 42.363 24.925 78.701 60.807 95.865v25.838c0 226.882 183.971 410.853 410.853 410.853h30.494c182.145 0 336.443-118.691 390.22-282.941l-10.865-1.187c0.182-1.735 1.004-3.195 1.004-5.022zM664.199 35.603h30.403c6.574 0 12.691-1.46 18.351-4.017l80.253 46.381c11.869 6.848 31.682-5.295 44.281-27.116 12.6-21.912 13.238-45.103 1.369-51.95l-104.266-60.258c-7.67-14.516-22.368-24.743-39.99-24.743h-30.403c-25.199 0-45.65 20.451-45.65 45.65v30.403c0 25.199 20.451 45.65 45.65 45.65z"  horiz-adv-x="1118" />

    
    <glyph glyph-name="Set_up" unicode="&#58888;" d="M959.744 292.672l-42.688 187.232-113.184 12.608-28.8 36.16 12.992 113.024-173.056 83.328-80.352-80.608h-46.208l-80.352 80.608-173.056-83.328 12.992-113.088-28.768-36.096-113.184-12.608-42.72-187.232 96.448-60.384 10.304-45.024-60.736-96.256 119.808-150.176 107.36 37.76 41.632-20.032 37.376-107.488h192.064l37.408 107.488 41.6 20.032 107.36-37.76 119.808 150.176-60.736 96.256 10.272 45.024 96.416 60.384zM829.472 95.648l-58.816-73.76-88.192 31.040-93.088-44.864-30.72-88.224h-94.24l-30.72 88.224-93.088 44.864-88.192-31.040-58.816 73.76 49.888 79.040-23.008 100.704-79.2 49.6 20.96 91.936 92.96 10.336 64.384 80.736-10.656 92.832 84.96 40.928 66.016-66.176h103.328l66.016 66.176 84.96-40.928-10.656-92.832 64.416-80.736 92.96-10.336 20.96-91.904-79.232-49.632-22.976-100.704 49.792-79.040zM511.488 459.968c-94.976 0-171.968-76.992-171.968-171.936 0-95.040 76.96-172 171.968-172s171.968 76.96 171.968 172c0 94.944-76.96 171.936-171.968 171.936zM511.488 180.064c-59.392 0-107.712 48.352-107.712 107.776 0 59.36 48.32 107.712 107.712 107.712 59.424 0 107.744-48.352 107.744-107.712 0-59.424-48.32-107.776-107.744-107.776z"  horiz-adv-x="1024" />

    
    <glyph glyph-name="gouwuche" unicode="&#58889;" d="M364.8 172l403.2 0c19.2 0 38.4 12.8 44.8 32l76.8 332.8c6.4 12.8 0 25.6-6.4 38.4-6.4 12.8-25.6 19.2-38.4 19.2L294.4 594.4 275.2 677.6 153.6 677.6C140.8 677.6 128 671.2 128 658.4s12.8-25.6 25.6-25.6l83.2 0 38.4-166.4c0 0 0 0 0 0 0-6.4 0-6.4 0-12.8l57.6-236.8C307.2 204 281.6 172 281.6 133.6c0-25.6 12.8-44.8 25.6-57.6-12.8-12.8-25.6-38.4-25.6-57.6 0-44.8 38.4-83.2 83.2-83.2S448-32.8 448 12c0 12.8-6.4 25.6-6.4 38.4l275.2 0c-6.4-12.8-6.4-25.6-6.4-38.4 0-44.8 38.4-83.2 83.2-83.2s83.2 38.4 83.2 83.2c0 44.8-32 76.8-76.8 83.2 0 0-6.4 0-6.4 0L364.8 95.2c0 0 0 0 0 0-19.2 0-38.4 19.2-38.4 38.4C332.8 152.8 345.6 172 364.8 172zM787.2 50.4c19.2 0 38.4-19.2 38.4-38.4S812.8-20 787.2-20c-19.2 0-38.4 19.2-38.4 38.4S768 50.4 787.2 50.4zM364.8-20c-19.2 0-38.4 19.2-38.4 38.4 0 19.2 19.2 38.4 38.4 38.4 0 0 0 0 0 0s0 0 0 0c19.2 0 38.4-19.2 38.4-38.4C403.2-7.2 384-20 364.8-20zM768 216.8l-384 0L332.8 440.8l486.4 0L768 216.8zM844.8 549.6 832 485.6 320 485.6 307.2 543.2 844.8 549.6z"  horiz-adv-x="1024" />

    
    <glyph glyph-name="youjian" unicode="&#58927;" d="M486.355435 747.74865c-219.438804 0-397.36003-177.943738-397.36003-397.426545 0-219.505319 177.920202-397.47157 397.36003-397.47157 219.528855 0 397.516596 177.966251 397.516596 397.47157C883.872031 569.804912 705.88429 747.74865 486.355435 747.74865zM486.355435-18.747601c-203.836455 0-369.003192 165.234275-369.003192 369.069707 0 203.812919 165.166737 369.048217 369.003192 369.048217 203.880457 0 369.092219-165.235298 369.092219-369.048217C855.447654 146.485651 690.235892-18.747601 486.355435-18.747601zM700.072935 172.89923l-427.322435 0c-8.4126 0-15.264659 6.804986-15.264659 15.105023L257.485841 512.616422c0 8.321526 6.852058 15.083533 15.264659 15.083533l427.322435 0c8.388041 0 15.217586-6.760984 15.217586-15.083533l0-324.612169C715.290521 179.704217 708.460975 172.89923 700.072935 172.89923zM479.344764 326.532283c5.946432-5.90243 15.60235-5.90243 21.550829 0l188.118472 186.084139L291.270295 512.616422 479.344764 326.532283zM547.50105 351.271734c17.682731-13.568017 116.209722-89.186252 152.571884-117.069299L700.072935 502.192002C666.80832 469.31215 595.213725 398.465592 547.50105 351.271734zM272.750499 195.579789c0-4.160763 3.437286-7.575536 7.643074-7.575536L692.382788 188.004253c4.229325 0 7.690146 3.414773 7.690146 7.575536l0 19.763113L536.781918 340.711214c-21.369703-21.189601-35.885302-35.526121-35.885302-35.526121-5.948479-5.901407-15.604396-5.901407-21.550829 0l-39.120996 38.736233-167.473269-128.578424L272.751522 195.579789zM272.750499 234.202435c36.542264 28.019147 127.537721 97.870028 156.777673 120.302947L273.745153 508.591759c-0.564865-1.085728-0.994654-2.238994-0.994654-3.504824L272.750499 234.202435z"  horiz-adv-x="1024" />

    
    <glyph glyph-name="iconfontxiajiantou" unicode="&#58903;" d="M512.002586 778.383838c264.292848 0 479.297939-215.005091 479.297939-479.303111S776.295434-180.217212 512.002586-180.217212C247.699394-180.217212 32.699475 34.787879 32.699475 299.080727 32.699475 563.378747 247.699394 778.383838 512.002586 778.383838L512.002586 778.383838 512.002586 778.383838zM512.002586-111.747556c226.540606 0 410.828283 184.292848 410.828283 410.828283 0 226.540606-184.292848 410.833455-410.828283 410.833455-226.540606 0-410.833455-184.292848-410.833455-410.833455C101.169131 72.545293 285.46198-111.747556 512.002586-111.747556L512.002586-111.747556 512.002586-111.747556zM316.790949 241.701818l169.565091-171.448889c10.000808-10.136566 24.78804-12.672 37.218263-7.63604 0.780929 0.307717 1.398949 1.060202 2.156606 1.433859 3.180606 1.576081 6.367677 3.287919 9.038869 5.929374 0.029737 0.029737 0.029737 0.065939 0.065939 0.095677 0.029737 0.034909 0.071111 0.034909 0.107313 0.071111l170.488242 170.020202c13.388283 13.348202 13.419313 35.020283 0.071111 48.404687-6.676687 6.711596-15.480242 10.065455-24.237253 10.065455-8.732444 0-17.494626-3.317657-24.171313-9.994343l-110.858343-110.515717L546.235475 504.494869c0 18.934949-15.336727 34.241939-34.232889 34.241939-18.898747 0-34.235475-15.30699-34.235475-34.241939l0-328.181657-112.298667 113.525657c-6.676687 6.782707-15.50998 10.166303-24.338101 10.166303-8.696242 0-17.393778-3.282747-24.070465-9.893495C303.609535 276.833293 303.472485 255.15604 316.790949 241.701818L316.790949 241.701818 316.790949 241.701818zM316.790949 241.701818"  horiz-adv-x="1024" />

    
    <glyph glyph-name="lipintianchong" unicode="&#59014;" d="M764.827648 835.673088c-42.902528 42.899456-112.457728 42.899456-155.360256 0l-93.618176-93.621248-93.621248 93.621248c-42.9056 42.899456-112.457728 42.899456-155.360256 0-42.899456-42.902528-42.899456-112.457728 0-155.360256l25.347072-24.6272 56.35072 0.070656-53.660672 53.660672c-27.496448 27.49952-27.496448 72.081408 0 99.580928 27.49952 27.49952 72.08448 27.49952 99.584 0l122.606592-122.606592L639.706112 808.99584c27.49952 27.49952 72.081408 27.49952 99.580928 0s27.498496-72.081408 0-99.580928l-53.248-53.248 54.711296 0.067584 24.077312 24.077312C807.727104 723.214336 807.727104 792.77056 764.827648 835.673088zM945.181696 329.718784l-0.892928 241.502208c0 28.532736-23.128064 51.657728-51.6608 51.657728l-49.705984 0.254976c-0.538624-0.047104-0.9984-0.310272-1.545216-0.310272l-299.357184-0.36864 0-292.736L945.181696 329.718784zM95.84128 289.251328l0-327.877632c0-28.532736 23.126016-51.657728 51.657728-51.657728l354.05312 0 0 379.53536L95.84128 289.251328zM501.552128 622.40768l-270.926848-0.333824-0.023552 0c-0.804864 0-1.496064 0.351232-2.274304 0.456704l-80.828416 0.34816c-28.532736 0-51.657728-23.126016-51.657728-51.657728l0-241.502208 405.711872 0L501.553152 622.40768zM542.019584-90.284032l350.608384 0c28.532736 0 51.6608 23.126016 51.6608 51.657728L944.288768 289.251328 542.019584 289.251328 542.019584-90.284032zM501.552128 289.251328l0.280576 0 0-379.53536-0.280576 0 0 379.53536ZM501.833728 329.718784l0 287.10912c0 1.978368 0.541696 3.796992 1.127424 5.582848l-1.408-0.003072 0-292.688896L501.833728 329.718784zM939.52 291.547136 542.019584 291.547136l0-2.294784 402.269184 0 0 3.258368C942.737408 292.073472 941.211648 291.547136 939.52 291.547136z"  horiz-adv-x="1024" />

    
    <glyph glyph-name="shangjiadianpu" unicode="&#58885;" d="M804.052612-9.244156c0-34.002418-27.561729-61.564148-61.561078-61.564148L280.771685-70.808304c-34.002418 0-61.564148 27.561729-61.564148 61.564148L219.207537 206.22422l-61.564148 0 0-246.254543c0-50.995441 41.34464-92.340081 92.346221-92.340081l523.280928 0c51.001581 0 92.346221 41.34464 92.346221 92.340081L865.61676 206.22422l-61.564148 0L804.052612-9.244156zM927.174768 544.849544c0 102.001115-82.686211 184.695512-184.689373 184.695512L280.768615 729.545056c-102.001115 0-184.689373-82.695421-184.689373-184.695512L65.297169 421.733529l0-30.779004c0-68.010977 55.124482-123.128295 123.125225-123.128295l123.125225 0c36.82572 0 38.998199 16.248056 61.564148 41.87369 22.562878-25.625634 55.518454-41.87369 92.343151-41.87369 55.767118 0 5.8001 0 61.564148 0l30.782074 0c36.82265 0 69.778226 16.248056 92.343151 41.87369 22.562878-25.625634 55.518454-41.87369 92.343151-41.87369l92.343151 0c68.001767 0 123.125225 55.118342 123.125225 123.128295l0 30.779004L927.174768 544.849544zM896.395764 390.954525c0-33.996279-27.564799-61.570287-61.564148-61.570287l-92.343151 0c-33.999348 0-61.564148 27.574009-61.564148 61.570287l0 61.558008c0 16.996093-13.779841 30.788214-30.779004 30.788214-17.002232 0-30.782074-13.792121-30.782074-30.788214l0-61.558008c0-33.996279-27.564799-61.570287-61.561078-61.570287L465.454918 329.384237c-33.999348 0-61.564148 27.574009-61.564148 61.570287l0 61.558008c0 16.996093-13.779841 30.788214-30.779004 30.788214-17.002232 0-30.782074-13.792121-30.782074-30.788214l0-61.558008c0-33.996279 3.217275-61.570287-30.782074-61.570287L188.422394 329.384237c-33.999348 0-61.564148 27.574009-61.564148 61.570287l0 30.779004 30.785144 123.116015c0 68.007907 55.124482 123.125225 123.125225 123.125225l461.71678 0c68.001767 0 123.125225-55.117318 123.125225-123.125225l30.785144-123.116015L896.395764 390.954525z"  horiz-adv-x="1024" />

    
    <glyph glyph-name="guanbi" unicode="&#58904;" d="M512 809.419355C238.351337 809.419355 16.516129 587.584157 16.516129 313.935484 16.516129 40.286821 238.351337-181.548387 512-181.548387 785.648663-181.548387 1007.483871 40.286821 1007.483871 313.935484 1007.483871 587.584157 785.648663 809.419355 512 809.419355L512 809.419355 512 809.419355ZM512.000003-96.608297C285.647948-96.608297 101.456225 88.310475 101.456225 314.404146 101.456225 540.497796 285.647948 724.479249 512.000003 724.479249 738.352059 724.479249 922.543781 540.497796 922.543781 314.404146 922.543781 88.310475 738.352059-96.608297 512.000003-96.608297L512.000003-96.608297 512.000003-96.608297ZM688.735922 490.669196C676.639661 502.767657 657.04303 502.767657 644.944549 490.669196L512.00111 357.726844 379.05878 490.669196C366.96252 502.767657 347.364778 502.767657 335.267407 490.669196 323.17115 478.572916 323.17115 458.975174 335.267407 446.877803L468.20974 313.935484 335.267407 180.993154C323.17115 168.893564 323.17115 149.298042 335.267407 137.202891 341.317203 131.151986 349.239316 128.129865 357.162539 128.129865 365.086872 128.129865 373.010095 131.151986 379.057671 137.202891L512 270.146337 644.943439 137.202891C650.992125 131.151986 658.916458 128.129865 666.839681 128.129865 674.764014 128.129865 682.686127 131.151986 688.734812 137.202891 700.83218 149.298042 700.83218 168.894674 688.734812 180.993154L555.79026 313.935484 688.733703 446.877803C700.82996 458.975174 700.82996 478.571826 688.733703 490.669196L688.735922 490.669196Z"  horiz-adv-x="1024" />

    
    <glyph glyph-name="dianhua1" unicode="&#58928;" d="M598.90786 452.826688c16.674775 20.627806 29.434379 44.936445 38.457894 72.998571 8.842389 28.081569 13.444197 58.182121 13.444197 90.486874 24.813129-9.330506 41.327244-18.191314 49.302893-26.709315 8.013511-8.482185 11.929704-20.392446 11.929704-35.534308 0-26.384927-6.316869-52.064796-18.894326-77.221756-12.742209-25.338085-25.860994-37.934984-39.46892-37.934984-5.26798 0-12.233626 1.192152-21.095457 3.39226C623.740432 444.670937 612.533183 448.261719 598.90786 452.826688M214.638987 26.204194c-38.763862 48.994877-66.881247 95.087659-83.863013 138.812509-17.197684 43.728944-25.698289 89.99978-25.698289 138.816602 0 53.597709 10.377348 105.102756 30.950919 154.966421 20.627806 49.862641 50.025347 93.89653 88.139409 132.173299 38.276768 38.115086 82.148975 67.566862 131.831514 88.122013 49.663096 20.591991 101.403504 30.933523 155.309228 30.933523 54.085826 0 105.806791-10.178827 154.967444-30.590715 49.158606-20.409842 92.904946-50.006927 131.506103-88.464821 38.260395-38.276768 67.711148-82.166371 88.447425-131.831514 20.75265-49.681516 31.148417-101.386108 31.148417-155.145499 0-53.238528-10.395768-104.797811-31.148417-154.804738-20.736277-49.990554-50.187029-93.89653-88.447425-131.814118-38.294165-38.295188-82.184791-67.711148-132.010593-88.48324-49.846268-20.753673-101.387132-31.110555-154.461931-31.110555-65.167209 0-117.375268 10.356882-156.5198 31.29168-39.287795 20.933775-58.849316 48.474015-58.849316 82.328054 0 7.327896 1.352811 14.474666 3.934612 21.458731 2.688225 6.966669 6.965645 14.257725 13.08297 22.269189 5.937223-5.611811 11.225669-9.69071 16.170285-12.416797 4.76349-2.707668 9.004071-3.914146 12.758582-3.914146 5.937223 0 14.960737 5.087878 27.376511 15.321964 12.235672 10.358929 24.50716 23.459295 36.742832 39.466873 10.033517 13.588483 18.534122 28.91147 25.679869 46.090734 7.164167 17.018605 10.720156 27.882024 10.720156 32.664957 0 2.870374-4.240581 9.347902-12.57848 19.381419-8.518001 10.051937-12.759605 20.068058-12.759605 30.462802 0 13.588483 3.916193 31.636534 11.730159 53.92312 7.832386 22.431895 19.057031 49.142234 34.017768 80.110549 17.362436 34.883485 31.292704 59.373249 42.193984 73.503061 10.700713 14.113439 21.781072 23.100114 33.17047 27.033703 2.542916 1.028423 6.982018 1.895163 12.920264 2.562359 19.561521 2.039449 34.196847 10.539031 43.908022 25.355481 8.823969 14.942317 16.656355 34.180474 23.316032 57.659211 6.622838 23.298636 10.015098 43.185568 10.015098 59.535955 0 13.264095-2.058892 22.287609-6.29845 26.889417-4.077875 4.565992-12.740162 6.965645-26.185382 6.965645-20.917402 0-38.618553-1.533936-53.255924-4.420683-14.636349-3.086291-25.681916-7.309476-33.331129-13.102413-9.366322-6.642281-24.165376-22.793122-44.577265-48.834218-20.409842-25.842575-41.326221-55.457056-62.602803-88.627527-38.782282-60.745503-70.761624-125.533065-95.593172-194.255239-25.031093-68.902276-37.429471-120.44314-37.429471-154.967444 0-6.820336 1.551332-13.788028 4.420683-21.258163 3.085268-7.505951 8.337899-17.377786 15.989159-29.613458-10.377348-12.94073-18.028609-25.843598-22.954805-38.457894-4.927219-12.57848-7.490601-25.338085-7.490601-38.259372 0-42.878576 23.13593-77.907371 69.226664-105.137549 46.27186-27.215852 107.180068-40.841174 182.885284-40.841174 58.183144 0 114.631784 11.405771 169.764452 34.217313 54.953589 22.629393 103.425557 54.771441 145.259338 96.458889 41.86755 41.832757 74.188676 90.160439 96.801696 144.932903 22.792099 54.771441 34.198893 111.582331 34.198893 170.434717 0 58.866712-11.225669 115.334795-33.857109 169.45746-22.629393 54.067406-54.95052 102.396111-97.143481 144.932903-42.014906 42.338271-89.981361 74.515111-144.411017 96.945983-54.247508 22.468734-111.095237 33.694403-170.613796 33.694403-59.210543 0-115.859751-11.225669-170.107259-33.855062-54.465472-22.630417-102.43295-54.952566-144.264685-96.7843-41.687448-41.507346-73.829496-89.655949-96.459912-144.44581-22.793122-54.969962-34.180474-111.583354-34.180474-170.107259 0-51.360761 7.814989-99.166557 23.460318-142.896524 15.647375-43.88858 38.637995-83.012645 69.245084-117.211539 6.297426-7.309476 12.596899-12.921287 18.696828-16.693194 6.135744-3.859911 11.92868-5.757121 17.198707-5.757121 1.678222 0 4.240581 0.525979 7.471159 1.210571C205.615473 23.316423 209.712791 24.669234 214.638987 26.204194M364.155279 24.344846c25.355481 18.191314 46.091758 39.10667 62.60485 62.422701 16.513092 23.497157 28.063149 49.321312 35.027771 77.565587 17.704221-11.730159 29.614481-21.078061 35.732829-28.244274 6.134721-7.145747 9.18622-14.435781 9.18622-22.107507 0-20.231787-10.196223-44.23241-30.968315-71.789023-20.573571-27.539216-40.117696-41.34464-58.670238-41.34464-5.611811 0-12.939707 2.057869-21.943778 5.973038C386.082684 10.88223 375.887484 16.691539 364.155279 24.344846"  horiz-adv-x="1024" />

    
    <glyph glyph-name="top" unicode="&#58918;" d="M96.615 738h830.769v-138.461h-830.769v138.461zM927.385 114.923h-207.693v-276.923h-415.385v276.923h-207.693l415.385 415.385 415.385-415.385z"  horiz-adv-x="1024" />

    
    <glyph glyph-name="dian" unicode="&#58907;" d="M512.340249 300.170892m-350.994026 0a343 343 0 1 0 701.988052 0 343 343 0 1 0-701.988052 0Z"  horiz-adv-x="1024" />

    
    <glyph glyph-name="dizhi" unicode="&#58886;" d="M512 284.4c-79.392 0-144 64.592-144 144s64.608 144 144 144c79.408 0 144-64.608 144-144S591.408 284.4 512 284.4zM512 540.4c-61.76 0-112-50.24-112-112s50.24-112 112-112c61.744 0 112 50.24 112 112S573.744 540.4 512 540.4zM512-164c-91.056 0-336 438.752-336 601.872C176 617.696 326.72 764 512 764c185.264 0 336-146.304 336-326.128C848 274.752 603.056-164 512-164zM512 732c-167.632 0-304-131.952-304-294.128C208 259.088 463.2-132 512-132s304 391.088 304 569.872C816 600.048 679.632 732 512 732z"  horiz-adv-x="1024" />

    
    <glyph glyph-name="mima" unicode="&#58936;" d="M880-212 144-212c-29.248 0-64 31.104-64 64L80 396c0 23.68 32.032 64 64 64 15.328 0 64 0 64 0L208 556c0 149.44 128.768 254.528 288 256 156.608-1.472 288-104.096 288-256l0-64-64 0L720 556c0 124.64-94.432 191.296-224 192C363.392 747.232 272 678.592 272 556l0-96 512 0c0 0 76.576 0 96 0 35.072 0 64-28.384 64-64l0-544C944-179.68 909.248-212 880-212zM880 396 144 396l0-544 736 0L880 396zM528 332c88.352 0 160-71.648 160-160 0-77.408-54.976-141.952-128-156.768L560-84c0-17.664-14.336-32-32-32-17.664 0-32 14.336-32 32l0 99.232c-73.024 14.816-128 79.36-128 156.768C368 260.352 439.648 332 528 332zM528 76c53.024 0 96 42.976 96 96 0 53.024-42.976 96-96 96-53.024 0-96-42.976-96-96C432 118.976 474.976 76 528 76z"  horiz-adv-x="1024" />

    
    <glyph glyph-name="xiaoxi" unicode="&#58890;" d="M512.852414 412.473631c-30.783097 0-55.740512-24.958438-55.740512-55.740512 0-30.783097 24.957415-55.740512 55.740512-55.740512 30.783097 0 55.740512 24.957415 55.740512 55.740512C568.592926 387.515193 543.635511 412.473631 512.852414 412.473631zM289.88832 412.473631c-30.783097 0-55.740512-24.958438-55.740512-55.740512 0-30.783097 24.957415-55.740512 55.740512-55.740512 30.783097 0 55.740512 24.957415 55.740512 55.740512C345.629855 387.515193 320.671417 412.473631 289.88832 412.473631zM512.852414 746.919772c-246.27501 0-445.927165-174.709067-445.927165-390.186653 0-123.156948 65.361637-232.816486 167.222559-304.315914l0-197.352787 195.352223 118.529557c27.039843-4.461615 54.843072-7.04751 83.352383-7.04751 246.27501 0 445.928189 174.680415 445.928189 390.186653C958.779579 572.209682 759.1264 746.919772 512.852414 746.919772zM512.852414 22.286977c-32.552393 0-63.98836 3.781116-94.213755 10.233062l-131.200134-78.876442 1.755993 129.282458c-100.596116 60.476373-166.528758 160.472831-166.528758 273.80604 0 184.697559 174.694741 334.446142 390.186653 334.446142 215.491912 0 390.186653-149.748582 390.186653-334.446142C903.039068 172.008954 728.344327 22.286977 512.852414 22.286977zM735.816508 412.473631c-30.783097 0-55.740512-24.958438-55.740512-55.740512 0-30.783097 24.957415-55.740512 55.740512-55.740512 30.783097 0 55.740512 24.957415 55.740512 55.740512C791.55702 387.515193 766.598582 412.473631 735.816508 412.473631z"  horiz-adv-x="1024" />

    
    <glyph glyph-name="dui" unicode="&#58883;" d="M511.385605 895.99962C229.103146 895.658287-0.340953 665.702189 0.00038 383.385596 0.341713 101.103136 230.297811-128.340962 512.614404-127.999629 794.896864-127.658296 1024.340962 102.297802 1023.999629 384.614395 1023.658296 666.896854 793.702198 896.340953 511.385605 895.99962L511.385605 895.99962zM829.576305 557.431335 443.835788 170.803351c-11.059192-11.093325-28.979179-11.093325-40.072504-0.034133l-209.578513 209.066513c-11.059192 11.059192-11.093325 28.979179-0.034133 40.038371 11.059192 11.093325 28.979179 11.093325 40.072504 0.034133l189.508128-189.064395 365.738398 366.591731c11.059192 11.059192 28.979179 11.093325 40.072504 0.034133C840.601364 586.444647 840.635497 568.52466 829.576305 557.431335L829.576305 557.431335zM829.576305 557.431335"  horiz-adv-x="1024" />

    
    <glyph glyph-name="touxiang" unicode="&#58891;" d="M512 812C229.674667 812 0 582.325333 0 300s229.674667-512 512-512 512 229.674667 512 512S794.325333 812 512 812zM523.221333 659.829333c193.6 0 193.92-148.117333 193.92-231.424s-77.568-238.08-193.92-238.272c-116.352-0.170667-193.92 154.944-193.92 238.250667C329.301333 511.690667 329.642667 659.829333 523.221333 659.829333zM512-183.776c-148.16 0-280.682667 66.688-369.429333 171.584 11.648 32.213333 28.693333 67.114667 51.733333 85.034667 49.536 38.549333 192.298667 102.613333 192.298667 102.613333l90.133333-171.413333 16.384 41.557333-25.408 51.242667 50.794667 51.264 50.773333-51.264-25.365333-51.242667 13.738667-40.597333 92.714667 170.453333c0 0 142.784-64.064 192.32-102.613333 22.570667-17.578667 38.421333-44.864 49.578667-71.722667C803.690667-111.392 666.325333-183.776 512-183.776z"  horiz-adv-x="1024" />

    
    <glyph glyph-name="yonghu2" unicode="&#58945;" d="M511.999488 305.69251599999996c-145.821133 0-264.420275 119.108748-264.420275 265.499863 0 146.420791 118.599142 265.560238 264.420275 265.560238S776.419763 717.614194 776.419763 571.193403C776.419763 424.802288 657.820622 305.69251599999996 511.999488 305.69251599999996zM511.999488 806.053432c-128.85267 0-233.721089-105.34835-233.721089-234.861052 0-129.482003 104.868419-234.800677 233.721089-234.800677s233.721089 105.318674 233.721089 234.800677C745.720577 700.705082 640.852158 806.053432 511.999488 806.053432zM943.346587-68.75364100000002L80.651366-68.75364100000002c-8.454556 0-15.349593 6.865361-15.349593 15.349593l-0.180102 6.175653c0 204.521047 200.444195 370.908588 446.876794 370.908588s446.876794-166.387541 446.876794-370.908588l-0.119727-4.676509C958.456726-60.11898299999996 951.561689-68.75364100000002 943.346587-68.75364100000002zM95.941608-38.05445499999996l831.876308 0c-7.91425 185.094602-191.450357 331.035462-415.818427 331.035462C286.252001 292.98203 101.937159 145.30155000000002 95.941608-38.05445499999996z"  horiz-adv-x="1024" />

    
    <glyph glyph-name="crown" unicode="&#58909;" d="M991.232 575.744c0 61.536-50.048 111.584-111.616 111.584s-111.616-50.048-111.616-111.584c0-52.704 36.8-96.736 86.016-108.384-44.224-88.16-102.656-170.112-133.952-170.112-30.464 0-91.872 88.864-153.984 259.136 44.672 19.648 75.104 63.968 75.104 115.136 0 69.632-56.672 126.272-126.304 126.272-69.664 0-126.336-56.672-126.336-126.272 0-51.296 30.56-95.68 75.36-115.232-66.112-183.168-123.648-250.656-147.264-250.656-43.872 0-104.8 85.312-144.448 161.76 49.248 11.616 86.112 55.68 86.112 108.416 0 61.536-50.08 111.584-111.616 111.584s-111.616-50.048-111.616-111.584c0-42.176 23.808-78.528 58.432-97.504l22.112-445.504c0.512-10.368 6.016-19.84 14.784-25.408 4.64-2.976 116.704-72.16 384.48-72.16 267.776 0 379.84 69.44 384.48 72.384 8.8 5.632 14.304 15.168 14.784 25.6l19.712 445.664C967.872 497.92 991.232 533.984 991.232 575.744zM831.968 575.744c0 26.24 21.376 47.584 47.616 47.584s47.616-21.344 47.616-47.584c0-26.272-21.376-47.616-47.616-47.616S831.968 549.472 831.968 575.744zM452.512 671.488c0 34.336 27.968 62.272 62.336 62.272s62.304-27.936 62.304-62.272c0-31.84-24.064-58.272-56-61.536-2.112-0.192-4.224-0.64-6.24-1.28-2.016 0.64-4.128 1.056-6.304 1.28C476.64 613.152 452.512 639.616 452.512 671.488zM146.656 623.328c26.272 0 47.616-21.344 47.616-47.584 0-26.272-21.344-47.616-47.616-47.616s-47.616 21.344-47.616 47.616C99.04 601.984 120.384 623.328 146.656 623.328zM850.976 54.432c-35.68-16.416-140.832-55.296-336.128-55.296-195.584 0-300.8 38.848-336.256 55.136L163.584 356.16c40.16-58.432 94.08-114.56 152.992-114.56 64.864 0 131.52 90.176 198.4 268.256 69.408-183.584 138.272-276.608 205.056-276.608 52.736 0 104.352 58.944 144.192 121.312L850.976 54.432z"  horiz-adv-x="1024" />

    
    <glyph glyph-name="kefu" unicode="&#58892;" d="M389.519458 229.059298c-30.085202 0-54.416354-24.352641-54.416354-54.359049 0-30.086226 24.330128-54.441936 54.416354-54.441936 23.034623 0 42.512233 14.437827 50.367131 34.632775l-39.510876 19.810185 39.510876 19.699668C432.032714 214.707428 412.55408 229.059298 389.519458 229.059298L389.519458 229.059298zM643.209344 120.035232c22.978341 0 42.515303 14.408151 50.364061 34.685987l-39.565111 19.72832 39.565111 19.759019c-7.849782 20.247136-27.38572 34.633798-50.364061 34.633798-30.088272 0-54.4184-24.357757-54.4184-54.392818C588.790944 144.391966 613.118002 120.035232 643.209344 120.035232L643.209344 120.035232zM889.345184 247.8472c0.206708 8.553817 0.231267 17.248849 0.057305 25.971511 2.326998 117.957529-32.779567 217.391169-101.535511 287.574624-32.796964 33.466206-72.677253 59.157331-118.382201 76.653821C662.388149 701.763316 593.192184 751.930903 509.139859 751.930903c-84.052325 0-153.24829-50.166563-160.344918-113.883747-45.702901-17.496489-85.581144-43.188638-118.372991-76.654844-68.77641-70.184479-103.890138-169.424714-101.55393-287.025109-0.202615-11.111059-0.134053-21.544689 0.209778-31.745005-17.820877-17.934464-31.781844-45.029566-21.579481-83.044368 7.580652-28.248368 28.479635-49.41341 54.125735-58.676377 13.030781-8.040117 28.339442-12.717649 44.717458-12.824073 32.692586-142.950759 151.384849-240.008282 306.381969-240.008282 154.712641 0 273.429463 97.29493 305.941947 240.334717 1.001817-0.218988 2.038426-0.341784 3.105734-0.341784 20.419052 0 39.196721 7.128351 54.010101 19.004843 19.36914 10.986215 34.513048 29.371958 40.72247 52.509934C927.750889 201.488359 909.631206 230.125583 889.345184 247.8472zM509.139859 722.89152c62.61099 0 115.169019-31.789007 128.593773-74.27975-39.074947 11.147898-81.779561 16.864086-127.487579 16.864086l-2.221598 0c-45.704948 0-88.406492-5.716188-127.47837-16.863063C393.971863 691.102512 446.529893 722.89152 509.139859 722.89152zM513.280156-122.900729c-0.236384 0.00921-0.87902 0.00921-1.115404 0.00921-168.273495 0-285.803281 120.327506-285.803281 292.883537l-0.312108 16.419971c-0.210801 7.0383 0.881067 26.802436 2.053776 45.75816C319.838446 264.620211 357.927949 357.866942 359.592868 362.059428c2.958378 7.439436-0.662079 15.862269-8.101515 18.84009-7.468089 2.987031-15.880689-0.651846-18.868743-8.082072-0.370437-0.911766-35.933397-87.300298-117.450992-114.372887-2.347464 1.630127-18.520819 18.191314-40.285518 12.440333 0.01535 1.166569 0.028653 2.324952 0.050142 3.518127-2.145873 105.457844 28.41619 193.551204 88.386026 254.750031 57.861826 59.043744 142.475945 90.257653 244.682745 90.257653l1.068332-0.01842 0 0 0.26913-17.024745 1.172709 0.01842-0.26913 17.025769c102.234429 0 186.857758-31.213909 244.710374-90.257653 59.969836-61.198827 90.531899-149.292188 88.376817-255.326153 0.016373-0.825808 0.026606-1.63422 0.039909-2.451842-30.691 0-35.956933-27.236318-35.678594-28.359908-0.124843-0.554632-0.2415-1.113357-0.340761-1.678222-0.750083-4.234441-1.599428-15.413038-2.445702-29.446659-0.518816-0.421602-0.998747-0.887206-1.454118-1.379417-44.283576 43.678802-102.051257 55.92266-158.13253 67.805292-29.351492 6.219655-59.69559 12.648065-88.301092 23.491017C455.43675 340.345893 399.380036 432.352377 398.822334 433.278469c-4.111644 6.872524-13.016455 9.112542-19.908422 5.010107-6.872524-4.111644-9.121751-13.016455-5.019317-19.898189 2.457981-4.121877 61.529355-101.516068 172.820044-143.733589 30.703279-11.646248 62.162782-18.310018 92.582605-24.747637 61.028958-12.93152 118.673843-25.14468 157.950382-76.125795 0.413416-0.536212 0.86367-1.02433 1.332345-1.485841-0.056282-2.573615-0.056282-2.578732-0.056282-2.578732 0-19.005866-1.434675-37.377282-4.204765-55.027268C743.823879 34.017136 660.052964-18.845839 556.273343-30.23626c-7.736195 10.207479-23.49204 17.245779-41.794895 17.245779-25.956162 0-47.012733-14.047947-47.012733-31.337729 0-17.324574 21.056572-31.342846 47.012733-31.342846 23.263843 0 42.430368 11.316743 46.157249 26.123984 33.479509 3.846608 65.392336 11.846816 95.310739 23.927969 42.738383 17.260106 80.397075 42.401716 111.929232 74.731028 5.045923 5.173836 9.892301 10.525728 14.576997 16.016789C744.873792-49.32092 644.420939-122.892543 513.280156-122.900729z"  horiz-adv-x="1024" />

    
    <glyph glyph-name="4" unicode="&#58929;" d="M512.234849-146.924889c-247.299339 0-447.742511 200.428845-447.742511 447.701578 0 247.325945 200.443172 447.755814 447.742511 447.755814 247.298316 0 447.729208-200.429869 447.729208-447.755814C959.96508 53.503956 759.533165-146.924889 512.234849-146.924889zM512.234849-91.012462c216.035288 0 391.81371 175.781492 391.81371 391.788128 0 216.062917-175.777399 391.827013-391.81371 391.827013-216.034265 0-391.800407-175.765119-391.800407-391.827013C120.434441 84.770054 296.200584-91.012462 512.234849-91.012462M512.234849 160.851846c-92.75452 0-167.921477 75.208912-167.921477 167.935804s75.166957 167.881568 167.921477 167.881568c92.75452 0 167.935804-75.154677 167.935804-167.881568S604.989369 160.851846 512.234849 160.851846zM512.234849 216.821579c61.736063 0 111.911836 50.230008 111.911836 111.967094 0 61.682851-50.175773 111.925139-111.911836 111.925139s-111.925139-50.242288-111.925139-111.925139C400.30971 267.051587 450.498786 216.821579 512.234849 216.821579M316.3546-39.134931l-55.969733 0c0 139.106198 112.74583 251.863285 251.849982 251.863285 139.105175 0 251.835655-112.757087 251.835655-251.863285l-55.942103 0c0 108.005876-87.889723 195.894575-195.893552 195.894575C404.231019 156.758622 316.3546 68.870945 316.3546-39.134931"  horiz-adv-x="1024" />

    
    <glyph glyph-name="yuanshengtuijian" unicode="&#58922;" d="M512-145.416727c-10.472727 0-20.945455 3.677091-29.346909 11.031273L116.596364 186.242909c-0.884364 0.814545-1.768727 1.605818-2.583273 2.466909l-25.809455 26.554182c-117.597091 120.948364-117.597091 317.742545 0 438.667636 57.344 58.996364 133.678545 91.485091 214.970182 91.485091 78.405818 0 152.250182-30.231273 208.849455-85.364364 56.622545 55.109818 130.420364 85.364364 208.849455 85.364364 81.268364 0 157.649455-32.488727 214.993455-91.485091 117.527273-120.948364 117.527273-317.719273 0-438.644364l-25.856-26.577455c-0.837818-0.837818-1.698909-1.675636-2.583273-2.466909L541.370182-134.408727C532.968727-141.739636 522.472727-145.416727 512-145.416727z"  horiz-adv-x="1025" />

    
    <glyph glyph-name="iconfontshangchuanmoban" unicode="&#58916;" d="M369.438609 272.045321c0 0 0-130.227993 143.381571-130.227993 143.407154 0 143.407154 130.227993 143.407154 130.227993S518.526135 146.165356 369.438609 272.045321zM775.93574 325.103748c0 145.30948-117.806079 263.111466-263.11556 263.111466-145.3279 0-263.130909-117.801986-263.130909-263.111466 0-71.191412 28.297486-135.639237 74.140581-183.043896 20.846794-18.754133 43.582611-35.307134 68.604494-48.327682 13.603833-7.040347 28.619828-14.160511 44.360324-20.600177 24.069185-7.203052 49.590442-11.17655 76.025511-11.17655C658.12966 61.956466 775.93574 179.763568 775.93574 325.103748zM512.82018 101.425386c-123.496685 0-223.660966 100.165304-223.660966 223.678362 0 123.508965 100.165304 223.61594 223.660966 223.61594 123.513058 0 223.64664-100.106975 223.64664-223.61594C736.466819 201.59069 636.333238 101.425386 512.82018 101.425386zM847.69304 407.679441C810.672892 558.237459 674.765549 669.894492 512.82018 669.894492c-161.89318 0-297.691029-111.526049-334.794066-262.000156 0 0-92.877317-14.680351-88.772836-108.10002 4.117784-93.394087 102.066607-99.07446 102.066607-99.07446 1.178849-2.988054 21.769816 2.90926 29.163203 4.157693-15.263635 37.045731-23.756053 77.631078-23.756053 120.225175 0 174.555571 141.532457 316.061422 316.093145 316.061422 174.555571 0 316.060399-141.505851 316.060399-316.061422 0-139.306766-90.078575-257.493515-215.164454-299.565726-8.046257-2.746554-16.525372 0.895393-16.525372 0.895393s-21.203928 3.968381-47.784306-3.535523c-13.077853-3.751441-18.700921-17.689894-17.916045-29.925566 0.979304-14.56574 6.496971-25.031093 21.720697-27.344788 19.597337-3.071965 47.458895-6.54916 57.976436 14.407128 2.856048 5.681396 5.953595 16.252149 12.641925 18.511609 96.655364 32.861432 174.013219 107.417475 210.710003 202.201212 0 0 97.414657 11.418051 100.270704 101.223403C937.687704 391.749634 847.69304 407.679441 847.69304 407.679441z"  horiz-adv-x="1024" />

    
    <glyph glyph-name="hongbao" unicode="&#59007;" d="M510.107 873.517c-276.999 0-501.545-224.546-501.545-501.538 0-276.971 224.546-501.517 501.545-501.517 276.992 0 501.531 224.539 501.531 501.517 0 276.992-224.546 501.538-501.531 501.538zM510.107-105.082c-263.481 0-477.074 213.593-477.074 477.06 0 263.474 213.593 477.074 477.074 477.074 263.489 0 477.074-213.593 477.074-477.074 0-263.474-213.593-477.06-477.074-477.06zM702.531 623.51l-384.89 0c-25.945-5.021-41.493-20.447-46.926-45.987l0-411.067c5.91-26.306 22.029-42.418 50.676-45.987l376.452 0c30.056 3.728 47.078 20.497 51.623 49.737l0 404.499c-4.414 27.506-20.526 43.299-46.934 48.805zM716.619 156.131c-13.337-15.852-36.876-8.453-66.73-8.453l-287.194 0c-24.478 0-49.094-2.991-59.129 8.453-12.384 14.132-6.568 75.704-6.568 102.292l0 216.801 0 54.433c0 33.661-5.491 61.333 23.467 66.636 14.248 2.608 39.557 0.932 57.251 0.932l281.544 0c28.748 0 40.092 5.744 54.542-6.568 10.657-9.067 8.453-30.735 8.453-57.251 0-88.882 0-180.481 0-274.044-0.007-28.004 6.271-89.077-5.636-103.231zM509.674 446.136c60.567 39.441 117.948 82.495 178.472 122.001 3.425-7.391 7.239-14.342 10.787-21.588-61.391-45.705-126.495-87.235-188.428-132.326-62.67 44.26-126.098 87.675-189.252 131.401 4.386 7.232 7.146 16.321 12.449 22.52 58.645-40.698 117.435-81.216 175.972-122.009l0 0zM509.399 339.133c10.382 7.29 17.037 16.105 27.224 26.285 6.091 6.091 20.006 24.637 28.149 25.338 6.445 0.564 15.917-6.907 15.96-15.014 0.079-14.811-33.329-30.475-38.473-43.177 16.068-1.358 43.639 4.92 46.912-9.385 6.279-27.347-43.169-13.728-65.69-16.899l0-39.42c19.63-5.961 70.509 10.838 65.69-16.892-3.222-18.59-45.597-7.073-64.75-10.325-4.501-18.417 6.77-50.366-12.203-52.555-21.726-2.514-13.547 29.29-15.014 51.623-21.437 5.39-66.427-8.858-66.636 14.082-0.21 22.629 42.931 9.775 65.697 13.128 2.146 11.3 0.34 26.566 0.939 39.42-20.454 5.722-64.685-8.822-66.636 12.196-1.85 19.898 25.764 14.479 46.934 15.021-4.191 6.206-11.004 12.868-18.778 20.642-5.758 5.766-18.185 13.265-18.771 21.588-0.571 8.135 8.815 16.191 15.021 15.953 9.703-0.368 20.179-17.369 28.149-25.338 9.877-9.869 19.298-17.918 26.277-26.27l0 0zM510.1 339.133z"  horiz-adv-x="1024" />

    
    <glyph glyph-name="cha" unicode="&#58908;" d="M886.528-12.032c-28.096-28.096-73.856-28.096-102.016 0L138.304 634.176c-28.096 28.16-28.16 73.856 0 102.016 28.032 28.16 73.792 28.16 102.08 0l646.144-646.144C914.624 61.76 914.752 16.128 886.528-12.032L886.528-12.032zM885.76 634.496 239.616-11.648c-28.224-28.224-73.92-28.224-102.08 0-28.16 28.096-28.16 73.728 0.064 102.016L783.744 736.448c28.224 28.16 73.984 28.16 102.016 0.064C913.984 708.352 913.856 662.656 885.76 634.496L885.76 634.496z"  horiz-adv-x="1024" />

    
    <glyph glyph-name="wuliu" unicode="&#58884;" d="M148.48 241.12l299.52 0c12.8 0 20.48 10.24 20.48 20.48 0 12.8-10.24 20.48-20.48 20.48L148.48 282.08C138.24 284.64 128 274.4 128 264.16 128 251.36 138.24 241.12 148.48 241.12zM148.48 369.12l299.52 0c12.8 0 20.48 10.24 20.48 20.48 0 12.8-10.24 20.48-20.48 20.48L148.48 410.08C138.24 412.64 128 402.4 128 392.16 128 379.36 138.24 369.12 148.48 369.12zM192 497.12l299.52 0c12.8 0 20.48 10.24 20.48 20.48 0 12.8-10.24 20.48-20.48 20.48L192 538.08c-12.8 0-20.48-10.24-20.48-20.48C171.52 507.36 179.2 497.12 192 497.12zM893.44 294.88l-168.96 238.08c-5.12 5.12-10.24 5.12-15.36 5.12l-89.6 0L619.52 625.12c0 12.8-10.24 20.48-20.48 20.48L256 645.6c-12.8 0-20.48-10.24-20.48-20.48S243.2 604.64 256 604.64l320 0 0-64 0-276.48c0-12.8 10.24-20.48 20.48-20.48l256 0 0-148.48-46.08 0c-10.24 48.64-53.76 84.48-104.96 84.48s-94.72-35.84-104.96-84.48l-174.08 0c-10.24 48.64-53.76 84.48-104.96 84.48s-94.72-35.84-104.96-84.48L148.48 95.2c-12.8 0-20.48-10.24-20.48-20.48 0-12.8 10.24-20.48 20.48-20.48l66.56 0c10.24-48.64 53.76-84.48 104.96-84.48s94.72 35.84 104.96 84.48l174.08 0c10.24-48.64 53.76-84.48 104.96-84.48s94.72 35.84 104.96 84.48l66.56 0c12.8 0 20.48 10.24 20.48 20.48l0 212.48C896 289.76 893.44 292.32 893.44 294.88zM320 8.16c-35.84 0-64 28.16-64 64 0 35.84 28.16 64 64 64s64-28.16 64-64C384 36.32 355.84 8.16 320 8.16zM704 8.16c-35.84 0-64 28.16-64 64 0 35.84 28.16 64 64 64s64-28.16 64-64C768 36.32 739.84 8.16 704 8.16zM698.88 497.12l151.04-212.48-230.4 0 0 212.48L698.88 497.12z"  horiz-adv-x="1024" />

    
    <glyph glyph-name="sousuo" unicode="&#58951;" d="M215.51289 525.05355c2.566452-1.534959 5.383614-2.25332 8.16803-2.25332 5.476735 0 10.796904 2.800789 13.802354 7.839549 45.552475 76.69373 129.193431 124.343983 218.281445 124.343983 8.856715 0 16.023952 7.166213 16.023952 16.023952s-7.167237 16.023952-16.023952 16.023952c-100.338243 0-194.541765-53.658084-245.838058-140.022057C205.404672 539.403373 207.907679 529.559167 215.51289 525.05355zM196.751594 478.498234c-8.607028 1.987261-17.229406-3.332908-19.24839-11.955286-4.78805-20.451798-7.495718-33.127492-7.495718-55.879682 0-8.856715 7.182586-16.023952 16.023952-16.023952 8.857738 0 16.024975 7.167237 16.024975 16.023952 0 19.309788 2.159176 29.387307 6.650467 48.588625C210.724841 467.874269 205.372949 476.480274 196.751594 478.498234zM947.204451 19.832953 784.053628 182.986847c-0.441045 0.442068-0.893346 0.86367-1.351787 1.272993 41.450041 62.197574 65.652256 136.821155 65.652256 217.013569 0 216.480426-176.10895 392.589376-392.588353 392.589376-216.4661 0-392.589376-176.10895-392.589376-392.589376 0-216.47224 176.123276-392.58119 392.589376-392.58119 78.758762 0 152.117536 23.378453 213.647915 63.470567l-46.695508 46.694485c-49.01125-29.074176-105.971543-46.069245-166.952406-46.069245-181.131337 0-328.493569 147.343813-328.493569 328.48436 0 181.131337 147.361209 328.493569 328.493569 328.493569 181.130314 0 328.493569-147.362232 328.493569-328.493569 0-85.36932-33.002648-162.956396-86.567611-221.433228l36.58422-36.585243c1.251503-1.983167 2.732228-3.860934 4.459568-5.588275l163.15287-163.151847c6.259564-6.259564 14.459317-9.389858 22.659069-9.389858s16.415878 3.130294 22.659069 9.389858C959.724603-12.980383 959.724603 7.315872 947.204451 19.832953z"  horiz-adv-x="1024" />

    
    <glyph glyph-name="p-wait-sentgoods" unicode="&#58893;" d="M200.058-49.011c-52.692 0-95.56 42.171-95.56 94.007v677.99c0 51.846 42.868 94.024 95.56 94.024h803.198c52.684 0 95.544-42.18 95.544-94.024v-678.009c0-51.825-42.861-93.988-95.544-93.988l-803.198 0zM142.342 50.385c0-34.481 28.346-62.534 63.187-62.534h792.242c34.843 0 63.19 28.053 63.19 62.534v429.347l-302.237 0.483 0.030-241.056-0.969-2.234 0.317-3.975c0.279-3.54-0.528-7.083-2.273-9.983-3.49-5.802-10.672-9.553-18.295-9.553-3.56 0-6.939 0.858-9.773 2.482l-111.431 66.8-112.572-61.672-5.361-1.844c-1.982-0.682-4.003-1.027-6.007-1.027-10.522 0-19.752 9.364-19.752 20.039l-0.036 241.523-330.262 0.481-0-429.811zM615.137 325.872c2.321 0 4.623-0.374 6.845-1.112l4.738-1.579 91.165-54.202-0.069 511.119h-204.405l0.071-508.020 97.367 53.377 0.903 0.148c1.102 0.179 2.242 0.27 3.386 0.27zM472.56 519.528l-0.034 260.569h-266.997c-34.842 0-63.187-28.043-63.187-62.512v-197.542l330.218-0.515zM1060.98 519.545v198.039c0 34.469-28.348 62.512-63.19 62.512h-239.080l0.048-260.069 302.222-0.482z"  horiz-adv-x="1114" />

    
    <glyph glyph-name="p-wait-assess" unicode="&#58894;" d="M496.152 42.385h-301.973c-40.267 0-73.027 32.758-73.027 73.025l0 597.627c0 40.267 32.759 73.027 73.027 73.027h814.942c40.267 0 73.025-32.759 73.025-73.027v-276.763h-1.272l0.744-9.151c0.088-1.074 0.305-1.948 0.483-2.59l0.037-0.141-0.005-0.149c-0.4-10.063-8.604-17.948-18.678-17.948-10.082 0-18.288 7.888-18.685 17.958l-0.005 0.146 0.039 0.141c0.173 0.627 0.384 1.482 0.475 2.523l0.81 9.211h-1.332l-0 249.597c0 34.628-28.17 62.8-62.796 62.8h-760.614c-34.629 0-62.8-28.173-62.8-62.8v-543.293c0-34.63 28.172-62.802 62.8-62.802h294.984l85.319-85.317 85.318 85.317h294.994c34.627 0 62.796 28.174 62.796 62.802v64.718l0.322 4.925c0.645 9.838 8.717 17.546 18.376 17.546 9.655 0 17.724-7.708 18.37-17.548l0.321-4.941v-91.867c0-40.267-32.758-73.025-73.025-73.025l-301.998 0-105.474-105.474-105.498 105.473zM357.006 326.552c-8.949 0-16.229 7.722-16.229 17.213 0 9.521 7.281 17.267 16.229 17.267h512.82c8.934 0 16.202-7.746 16.202-17.267 0-9.491-7.269-17.213-16.202-17.213l-512.82-0zM357.006 500.26c-8.949 0-16.229 7.72-16.229 17.209 0 9.522 7.281 17.267 16.229 17.267h512.82c8.934 0 16.202-7.746 16.202-17.267 0-9.489-7.269-17.209-16.202-17.209h-512.82z"  horiz-adv-x="1114" />

    
    <glyph glyph-name="p-return" unicode="&#58895;" d="M562.536 150.107c-7.049 0-13.239 4.517-15.404 11.239l-0.835 2.591-0.028 2.436 0.001 118.255-122.068 0-2.68 0.863c-6.738 2.169-11.267 8.373-11.267 15.437 0 7.062 4.517 13.249 11.239 15.395l2.421 0.774 122.355 0.073v66.382l-122.076 0-2.668 0.86c-6.723 2.167-11.239 8.358-11.239 15.407 0 7.044 4.519 13.235 11.244 15.407l2.56 0.827 2.464 0.028 119.714-0.001v41.212l-122.846 120.132-1.371 2.209c-3.763 6.063-3.1 13.99 1.613 19.277 2.843 3.229 7.386 5.124 12.204 5.124 4.026 0 7.722-1.278 10.438-3.602l116.746-114.581 110.72 109.179c2.994 2.565 6.837 3.975 10.85 3.975 4.752 0 9.157-1.897 12.084-5.204 2.898-3.279 4.348-7.468 4.076-11.788-0.171-2.653-0.954-5.153-2.327-7.414l-1.172-1.927-1.999-2.062-116.483-114.229v-40.304h119.847c8.895 0 16.131-7.25 16.131-16.163 0-7.065-4.519-13.269-11.243-15.439l-2.727-0.88-2.278-0.044h-119.73v-66.393h119.847c8.895 0 16.131-7.252 16.131-16.165 0-7.064-4.519-13.268-11.243-15.438l-2.727-0.88-2.278-0.044-119.735-0v-120.607l-0.862-2.676c-2.165-6.722-8.354-11.239-15.4-11.239zM562.527-62.551c-119.28 0-231.42 46.45-315.762 130.791s-130.791 196.481-130.791 315.761c0 119.278 46.449 231.417 130.791 315.759 84.343 84.343 196.482 130.793 315.762 130.793 116.85 0 227.287-44.881 310.966-126.376 83.473-81.295 131.377-190.18 134.886-306.598l0.807-26.811 46.888 46.143c3.427 3.37 7.967 5.228 12.777 5.228 4.918 0 9.531-1.935 12.985-5.449 3.416-3.465 5.27-8.044 5.233-12.906-0.038-4.874-1.973-9.441-5.448-12.857l-85.543-84.179c-3.439-3.38-7.977-5.244-12.769-5.244-0.35 0.025-1.473 0.328-2.293 0.548-0.627 0.17-1.254 0.339-1.883 0.492l-1.538 0.377-1.582-0.044c-0.393-0.012-0.761-0.042-1.103-0.082-4.54 0.218-8.784 2.097-12.031 5.347l-82.673 82.899c-7.074 7.113-7.055 18.697 0.055 25.81 3.416 3.395 7.993 5.28 12.86 5.28 4.893 0 9.488-1.898 12.935-5.347l64.764-64.941 0.42 27.736c0.008 0.499 0.038 0.993 0.063 1.488 0.052 0.972 0.099 1.947 0.099 2.935 0 225.455-183.42 408.875-408.875 408.875-225.459 0-408.882-183.42-408.882-408.875 0-225.458 183.424-408.881 408.882-408.881 121.586 0 236.138 53.84 314.282 147.715l0.474 0.569 0.398 0.624c3.814 5.978 9.668 9.405 16.061 9.405 10.799 0 19.586-8.787 19.586-19.586 0-2.471-0.62-5.035-1.895-7.822l-0.556-0.706-0.442-0.783c-1.301-2.302-3.020-4.24-5.256-5.922l-1.059-0.796-0.854-1.014c-85.419-101.271-209.613-159.354-340.738-159.354z"  horiz-adv-x="1114" />

    
    <glyph glyph-name="lajixiang" unicode="&#58881;" d="M832 640l-640 0c-17.664 0-32 14.336-32 32s14.336 32 32 32l640 0c17.664 0 32-14.336 32-32S849.664 640 832 640L832 640zM800 0c0-35.328-28.672-64-64-64l-448 0c-35.328 0-64 28.672-64 64l0 576 576 0L800 0 800 0zM416 800c0 17.664 14.336 32 32 32l128 0c17.664 0 32-14.336 32-32l0-32-192 0L416 800 416 800zM864 768l-192 0 0 64c0 35.328-28.672 64-64 64l-192 0c-35.328 0-64-28.672-64-64l0-64-192 0c-35.328 0-64-28.672-64-64l0-64c0-35.328 28.672-64 64-64l0-576c0-70.656 57.344-128 128-128l448 0c70.656 0 128 57.344 128 128l0 576c35.328 0 64 28.672 64 64l0 64C928 739.328 899.328 768 864 768L864 768zM512 0c17.664 0 32 14.336 32 32l0 384c0 17.664-14.336 32-32 32s-32-14.336-32-32l0-384C480 14.336 494.336 0 512 0L512 0zM352 0c17.664 0 32 14.336 32 32l0 384c0 17.664-14.336 32-32 32s-32-14.336-32-32l0-384C320 14.336 334.336 0 352 0L352 0zM672 0c17.664 0 32 14.336 32 32l0 384c0 17.664-14.336 32-32 32s-32-14.336-32-32l0-384C640 14.336 654.336 0 672 0L672 0z"  horiz-adv-x="1024" />

    
    <glyph glyph-name="zuojiantou-copy" unicode="&#58882;" d="M755.54 757.933l-409.332-373.933 409.332-373.932c14.305-14.242 14.305-37.362 0-51.605-14.278-14.269-37.468-14.269-51.735 0l-435.661 397.877c-7.594 7.603-10.865 17.725-10.362 27.662-0.503 9.936 2.768 20.024 10.362 27.663l435.661 397.874c14.266 14.269 37.457 14.269 51.735 0 14.305-14.242 14.305-37.362 0-51.605z"  horiz-adv-x="1024" />

    
    <glyph glyph-name="wodezujiline" unicode="&#58896;" d="M458.125487 617.734392c20.944008 0 41.984207-4.181229 64.309678-12.778024 42.591027-16.420995 75.92625-36.789904 101.899808-62.265112 45.913703-45.057195 63.187111-98.761328 52.80567-164.179246-0.954745-5.907547-2.263553-12.066827-3.648087-18.587334-0.580215-2.731204-1.176802-5.541203-1.76111-8.397251-11.30958-40.417525-29.441543-79.189573-55.406914-118.489648-45.978171-69.593008-93.039-129.444141-143.849222-182.950775-20.465101-21.516036-40.60786-38.760792-61.607126-52.738132-22.052249-14.703887-44.841278-21.851681-69.670779-21.851681-12.05557 0-24.787546 1.734504-37.880749 5.164626-12.884448 3.361561-23.527856 8.619308-32.541137 16.074094-9.107425 7.53358-16.325827 17.127076-22.057365 29.309536-8.686846 18.491143-11.404748 38.912242-8.308223 62.443168 1.895163 14.436804 6.577812 26.590612 17.275455 44.842301l0.013303 0.023536 0.013303 0.023536c5.514597 9.437953 15.161305 20.490683 27.897374 31.963992 4.148483 3.723811 8.721639 7.600095 13.563924 11.703553 16.83134 14.264888 35.907815 30.432103 49.676399 50.895157l0.031722 0.048095 0.031722 0.048095c28.79072 43.064818 36.249599 89.467661 22.165836 137.929396-4.001127 13.752212-11.396561 26.683732-17.922185 38.092573-3.993964 6.984065-8.124028 14.204513-9.80839 18.833951l-0.014326 0.039909-0.01535 0.039909c-9.255805 25.260314-13.243629 49.432853-11.853979 71.849398 1.416256 22.843264 8.549723 43.872207 21.201881 62.501496 24.532743 36.121685 47.827285 53.028751 80.403215 58.354036l0.025583 0.004093 0.025583 0.004093C441.373964 617.044684 449.786565 617.734392 458.125487 617.734392M458.125487 656.722358c-10.351766 0-20.796652-0.829901-31.342846-2.568499-46.918589-7.66968-78.17343-33.415041-106.366539-74.925457-34.591843-50.933019-35.140335-111.162776-13.703093-169.668261 6.14086-16.873296 21.919219-37.254485 26.932396-54.484915 10.943236-37.654598 4.684696-72.721255-17.142425-105.369839-14.21577-21.128203-38.217417-38.543851-56.957223-55.368028-13.057387-11.759835-26.624381-26.106588-35.496445-41.290405-11.382235-19.418258-19.35072-37.049824-22.295795-59.481719-3.849678-29.248138-0.820692-57.494459 11.675924-84.095303 16.409738-34.874275 43.566238-57.014528 80.044034-66.531276 16.165168-4.235464 32.090882-6.42841 47.723931-6.42841 31.714306 0 62.243623 9.026584 91.300402 28.401864 25.051559 16.674775 47.484478 36.498262 68.227917 58.305941 55.158251 58.084906 103.912651 121.401977 148.129712 188.329273 26.692942 40.401152 47.805796 83.762729 60.810994 130.87063 2.016937 10.004865 4.362354 19.936051 5.979178 29.970592 12.334933 77.704756-8.783037 143.942343-64.001663 198.1305-33.033347 32.398898-72.441892 54.338582-115.183346 70.815859C510.895341 651.178085 484.828662 656.722358 458.125487 656.722358L458.125487 656.722358zM323.356061 793.084049c8.648984 0 17.261129-3.774977 24.898063-10.907421 13.778818-12.878309 20.874423-29.29828 21.679765-50.179866-0.124843-15.810081-3.187599-27.569916-9.886161-38.043455-6.924713-10.816347-16.814967-16.773012-27.848255-16.773012-7.402597 0-14.939247 2.77623-21.767769 8.008394-12.489452 9.585309-21.248953 25.460882-24.032346 43.554982-2.78237 18.081821 0.796132 35.827997 9.795087 48.660256C303.299259 787.51624 312.945967 793.084049 323.356061 793.084049M323.356061 832.072015c-22.339798 0-44.107567-10.971889-59.061141-32.252565-30.919197-44.084031-20.361747-112.740714 22.398126-145.559167 14.143115-10.836813 30.004361-16.067954 45.506427-16.067954 23.487947 0 46.130643 12.007475 60.684104 34.738176 11.211343 17.528212 15.984043 36.815487 16.043395 59.649542-0.928139 28.964682-10.899234 56.4425-34.04949 78.08031C359.47263 825.047018 341.231173 832.072015 323.356061 832.072015L323.356061 832.072015zM495.458767 777.832693c6.771217 0 10.591219-5.78475 12.604062-10.637268l0.013303-0.032746 0.013303-0.032746c2.248204-5.39487 4.146437-12.93766 1.291412-27.996634-3.561106-14.32731-10.747785-24.118304-21.923312-29.9051-2.705622-1.397836-5.27719-2.106987-7.642051-2.106987-5.823636 0-9.475815 4.574179-11.514241 8.410554-9.874905 18.588357-0.360204 49.849338 18.167778 59.72322C489.636155 776.941394 492.744959 777.832693 495.458767 777.832693M495.458767 816.82066c-8.930393 0-18.231223-2.315742-27.313066-7.151887-37.557384-20.014846-54.270021-74.788334-34.274618-112.428605 9.946536-18.720364 27.225061-29.106922 45.945425-29.106922 8.402367 0 17.08819 2.090615 25.539676 6.458085 24.113187 12.487406 36.751019 33.615609 42.129516 56.238862 3.844561 19.517519 3.092431 35.701107-3.409656 51.300386C534.847869 804.383396 516.156158 816.82066 495.458767 816.82066L495.458767 816.82066zM617.705995 728.228949c0.925069 0 3.739161 0 5.875824-6.192026l0.01228-0.036839 0.01228-0.036839c1.452071-4.182252 2.39249-9.614985-0.447185-20.892843-4.431939-13.963013-12.054547-18.741853-17.419741-21.116947-1.437745-0.635473-2.77623-0.971118-3.871167-0.971118-2.01489 0-3.756557 1.578961-5.176906 4.695952-6.329149 13.891382 2.24411 36.945447 16.10377 43.280736C614.610494 727.78995 616.308159 728.228949 617.705995 728.228949M617.705995 767.216915c-6.859221 0-14.015202-1.548262-21.129226-4.802376-33.351596-15.246239-50.591235-61.480236-35.363416-94.900394 7.986905-17.532305 23.487947-27.51875 40.654932-27.51875 6.41306 0 13.057387 1.39272 19.633153 4.299933 21.397333 9.471722 33.370015 26.985608 39.184441 46.160319 4.328585 16.585747 4.52813 30.54262-0.248663 44.298925C653.324214 755.369076 636.650463 767.216915 617.705995 767.216915L617.705995 767.216915zM720.74986 653.553179c1.3743 0 3.931542 0 5.100158-6.229888l0.00614-0.034792 0.007163-0.034792c0.780783-4.119831 0.900509-9.360182-3.368724-19.656689-6.138814-12.551874-13.966083-15.988136-19.342534-17.475-0.998747-0.275269-1.916653-0.415462-2.730181-0.415462-1.077541 0-3.084245 0-4.451382 4.746094-1.876744 6.509251-0.405229 15.096836 3.935636 22.973224 4.26821 7.744381 10.881838 13.703093 17.249873 15.546068C718.469933 653.351588 719.71325 653.553179 720.74986 653.553179M720.74986 692.541145c-4.65502 0-9.492188-0.688685-14.425547-2.116197-34.46086-9.975189-57.767682-52.246945-47.816029-86.770226 5.887081-20.435425 22.388916-32.936133 41.914622-32.936133 4.25593 0 8.646937 0.590448 13.107529 1.822508 22.061458 6.101975 36.160571 21.337981 44.533262 39.061644 6.560416 15.432481 8.759501 28.90533 6.107091 42.907229C759.767502 677.982568 742.210637 692.541145 720.74986 692.541145L720.74986 692.541145zM781.898545 544.602791c0.835018 0 1.27197-0.125867 1.419326-0.180102 0.224104-0.309038 0.738827-1.415232 0.88209-3.533476l0.002047-0.034792 0.002047-0.034792c0.23843-3.438309-0.196475-7.770987-4.849448-16.07614-6.393617-9.870812-13.169951-11.952216-17.735943-12.651135-0.454348-0.069585-0.86981-0.104377-1.235131-0.104377-0.435928 0-0.722454 0.048095-0.86367 0.084934-0.186242 0.25685-0.586354 1.031493-0.819668 2.453888-0.88516 5.395894 1.277086 12.532431 5.643534 18.62315 4.357238 6.079462 10.395768 10.406001 15.756869 11.291161C780.757558 544.547533 781.362332 544.602791 781.898545 544.602791M781.898545 583.590757c-2.647293 0-5.369288-0.225127-8.148587-0.684592-32.828686-5.4225-58.915831-41.803082-53.523007-74.691119 3.488451-21.283746 19.701714-35.217083 40.157605-35.217083 2.324952 0 4.699022 0.181125 7.122211 0.551562 20.98187 3.210112 35.632545 15.696494 45.281299 31.109532 7.734148 13.493316 11.225669 25.667589 10.31288 38.85289C821.477982 567.566806 804.340673 583.590757 781.898545 583.590757L781.898545 583.590757z"  horiz-adv-x="1024" />

    
    <glyph glyph-name="yanjing" unicode="&#58948;" d="M910.001131 433.894364c-50.550303 78.533634-113.946168 137.2622-190.178387 176.187745 20.315698-34.624589 30.472012-72.059176 30.472012-112.305809 0-61.540611-21.8701-114.200972-65.608254-157.982104-43.73713-43.781132-96.398514-65.650209-157.981081-65.606207-61.582567 0.041956-114.243951 21.910009-157.981081 65.606207-43.738154 43.695175-65.60723 96.356558-65.60723 157.982104 0 40.245609 10.158361 77.68122 30.470989 112.305809-76.190263-38.925544-139.583059-97.655134-190.178387-176.187745 44.249807-68.225871 99.719142-122.54808 166.414147-162.964582 66.692958-40.415478 138.985448-60.623729 216.879516-60.623729s150.187581 20.208251 216.880539 60.623729C810.280966 311.346283 865.752348 365.668493 910.001131 433.894364L910.001131 433.894364zM550.662043 625.541195c0 6.643304-2.321882 12.307304-6.962575 16.991999-4.641717 4.684696-10.30674 7.005554-16.991999 6.963599-41.608653 0-77.298504-14.885012-107.067504-44.654013-29.770024-29.769001-44.654013-65.457828-44.654013-107.066481 0-6.644327 2.320858-12.307304 6.963599-16.993023 4.64274-4.683672 10.30674-7.007601 16.991999-6.964622s12.349259 2.366907 16.991999 6.964622c4.641717 4.599761 6.963599 10.264784 6.963599 16.993023 0 28.619828 10.158361 53.064566 30.472012 73.337285s44.760436 30.429033 73.337285 30.472012c6.643304 0 12.308327 2.320858 16.991999 6.962575C548.385187 613.190913 550.705022 618.854912 550.662043 625.541195zM973.885114 433.894364c0-11.328-3.321652-22.805402-9.965979-34.431184-46.591131-76.531024-109.216447-137.837298-187.877995-183.9178-78.661547-46.079478-161.750941-69.121264-249.27125-69.12024-87.518263 0-170.609703 23.125697-249.269203 69.376067C198.841186 262.04953 136.214846 323.269847 89.623715 399.461133c-6.644327 11.626805-9.965979 23.104207-9.965979 34.432207s3.321652 22.805402 9.965979 34.432207c46.591131 76.191286 109.217471 137.411603 187.879018 183.661973 78.659501 46.251394 161.749918 69.376067 249.269203 69.376067s170.609703-23.125697 249.27125-69.376067c78.659501-46.25037 141.284817-107.470687 187.877995-183.661973C970.563462 456.699766 973.885114 445.222363 973.885114 433.894364z"  horiz-adv-x="1024" />

    
    <glyph glyph-name="dingdan" unicode="&#58897;" d="M816.818 791.773l-55.88 0c-15.456 0-33.289-9.51-33.289-24.967 0-15.456 17.833-30.912 33.289-30.912l55.88 0c33.288 0 55.879-22.59 55.879-55.879l0-643.19c0-33.289-22.591-55.879-55.879-55.879L215.236-19.054c-33.289 0-70.144 22.59-70.144 55.879L145.092 680.014c0 33.289 22.59 55.879 55.879 55.879l70.144 0c15.455 0 21.4 15.457 21.4 30.912 0 15.457-5.945 24.967-21.4 24.967l-70.143 0c-78.469 0.001-111.758-48.744-111.758-112.945l0-636.058c0-68.955 41.611-117.698 117.699-117.698l603.957 0c76.093 0 117.704 40.423 117.704 117.698L928.574 678.827C928.575 743.028 889.341 791.773 816.818 791.773L816.818 791.773zM271.115 539.725c0-15.456 13.08-28.531 28.531-28.531l419.681 0c15.456 0 28.536 13.075 28.536 28.531 0 15.457-13.08 28.536-28.536 28.536L299.646 568.261C284.195 568.261 271.115 555.182 271.115 539.725L271.115 539.725zM718.139 413.703 299.646 413.703c-15.451 0-28.531-13.079-28.531-28.536 0-15.452 13.08-28.531 28.531-28.531l419.681 0c15.456 0 28.536 13.079 28.536 28.531C746.675 401.812 733.595 413.703 718.139 413.703L718.139 413.703zM718.139 246.071 299.646 246.071c-15.451 0-28.531-13.08-28.531-28.537 0-15.455 13.08-28.53 28.531-28.53l419.681 0c15.456 0 28.536 13.075 28.536 28.53C746.675 234.18 733.595 246.071 718.139 246.071L718.139 246.071zM412.593 721.626l194.98 0c22.591 0 41.61 22.59 41.61 48.746 0 26.154-19.021 48.745-42.799 48.745L412.593 819.117c-23.778 0-42.799-22.59-42.799-48.745C369.794 744.216 388.814 721.626 412.593 721.626L412.593 721.626z"  horiz-adv-x="1024" />

    
    <glyph glyph-name="yonghu" unicode="&#58939;" d="M512.224104-21.319306c-77.375252 0-154.751526-0.081864-232.126778 0.045025-26.723641 0.044002-52.43421 4.900613-75.937506 18.372439-35.137265 20.140713-55.116295 50.706869-61.20599 90.454128-4.345981 28.366048-2.047636 56.843636 0.029676 85.208661 2.869351 39.186488 9.591449 77.761038 22.170952 115.085108 10.3006 30.56411 24.777313 58.95881 46.690392 83.018785 26.449395 29.040407 60.021002 42.817178 98.661044 46.334281 11.641131 1.060145 21.200858-1.968841 30.644951-8.175193 16.883529-11.095709 33.608445-22.578228 51.275827-32.3068 37.655621-20.73423 77.983095-32.903388 121.331369-32.41527 46.270836 0.51984 88.802512 14.421454 128.196731 38.241976 13.227256 7.998161 26.359344 16.225543 38.986943 25.125237 11.54801 8.138354 23.545252 10.837836 37.645388 9.131985 32.536021-3.937682 61.679781-15.095813 85.878926-37.527708 19.10922-17.71343 32.42141-39.578414 43.37795-63.001893 14.878872-31.810496 22.701025-65.61951 28.353768-100.030228 5.885034-35.827997 8.046257-71.955822 7.101745-108.197234-0.847298-32.527834-10.060123-62.342884-32.552393-86.857207-19.567661-21.326724-44.029796-34.114982-72.376401-39.089273-11.365862-1.994424-23.02132-3.227508-34.55091-3.269463C666.62259-21.454382 589.423347-21.319306 512.224104-21.319306zM309.606407 587.118094c-1.994424 107.937315 90.564645 202.308659 202.861244 202.233957 111.328551-0.074701 203.311499-93.649913 202.711841-203.866131-0.593518-109.069091-91.724051-201.926966-203.006554-201.914686C400.584468 383.583514 307.190381 477.53428 309.606407 587.118094z"  horiz-adv-x="1024" />

    
    <glyph glyph-name="duihao" unicode="&#58920;" d="M1357.659858 875.34244 474.718514-7.598904 554.985911-7.598904 153.648937 393.738069 73.38154 313.470672 474.718514-87.866301 514.852212-128 554.985911-87.866301 1437.927255 795.075043 1357.659858 875.34244 1357.659858 875.34244Z"  horiz-adv-x="1476" />

    
    <glyph glyph-name="jifen" unicode="&#58919;" d="M898.143059 409.152866c0 24.481577-9.946536 58.749032-53.162804 91.937922 34.698267 26.76048 53.162804 58.157561 53.162804 91.832522 0 51.645241-43.415812 97.93859-122.248252 130.35386-70.641897 29.046546-163.936723 45.043892-262.699074 45.043892-98.763374 0-192.060247-15.997346-262.702144-45.043892-78.831416-32.414247-122.246205-78.70862-122.246205-130.35386 0-33.666774 18.455327-65.058738 53.140291-91.815125-42.977837-32.960693-53.139268-67.084884-53.140291-91.955318 0-33.190937 17.934464-64.169485 51.673893-90.677209-41.7468-32.608675-51.673893-66.237587-51.673893-90.823542 0-51.645241 43.414789-97.93859 122.246205-130.35386 70.641897-29.046546 163.937746-45.043892 262.701121-45.043892 98.762351 0 192.058201 15.997346 262.700097 45.043892 78.83244 32.41527 122.248252 78.70862 122.248252 130.35386 0 24.204262-9.720386 57.970296-51.699476 90.804099C880.199385 344.968032 898.143059 375.954767 898.143059 409.152866zM272.59905 669.517779c63.792908 26.230408 149.238976 40.676421 240.597707 40.676421 91.355661 0 176.800705-14.446014 240.593614-40.676421 53.992705-22.200628 86.22685-50.833759 86.22685-76.594469s-32.234145-54.392818-86.22685-76.594469c-63.792908-26.230408-149.237953-40.676421-240.593614-40.676421-91.358731 0-176.803775 14.446014-240.597707 40.676421-53.991682 22.200628-86.224804 50.833759-86.224804 76.594469S218.607368 647.317151 272.59905 669.517779zM250.494613 462.570473c70.641897-29.04757 163.93877-45.043892 262.702144-45.043892 98.762351 0 192.057177 15.996322 262.699074 45.043892 4.711302 1.938142 9.293667 3.925403 13.751189 5.960759l-0.119727-0.205685c32.558533-18.969027 50.490951-39.983643 50.490951-59.172681 0-25.759687-32.234145-54.392818-86.22685-76.593446-63.792908-26.230408-149.237953-40.676421-240.594637-40.676421-91.357707 0-176.803775 14.446014-240.596683 40.676421-53.991682 22.200628-86.224804 50.833759-86.224804 76.593446 0 19.123546 18.33867 40.444131 50.647517 59.253522C241.391281 466.415035 245.879502 464.468706 250.494613 462.570473zM840.01722 227.653139c0-25.76071-32.234145-54.392818-86.22685-76.594469-63.792908-26.230408-149.237953-40.676421-240.594637-40.676421-91.357707 0-176.803775 14.446014-240.596683 40.676421-53.991682 22.199605-86.224804 50.833759-86.224804 76.594469 0 18.692734 17.514909 39.486316 48.478108 57.979506 5.050016-2.339278 10.259668-4.620227 15.642259-6.832615 70.641897-29.046546 163.937746-45.043892 262.701121-45.043892 98.762351 0 192.058201 15.997346 262.700097 45.043892 5.382591 2.213411 10.593266 4.493338 15.642259 6.833639C822.816466 266.977773 840.01722 246.441041 840.01722 227.653139z"  horiz-adv-x="1024" />

    
    <glyph glyph-name="icon1" unicode="&#58937;" d="M511.837804-125.673004c-282.667589 0-511.816317 228.708707-511.816317 510.837014 0 155.550573 69.858998 294.617747 179.761974 388.283939 4.198621 4.643759 9.06853 8.574274 14.504328 11.76187 3.627617 2.870371 7.159043 5.849212 10.863408 8.623393l40.541304 0 0-3.753483c23.800032-8.444314 40.94551-30.89563 40.94551-57.547613 0-15.771179-6.135738-30.004331-15.939001-40.866716l2.981911 0c-91.625722-71.028636-150.823927-181.744116-150.823927-306.502413 0-214.417227 174.152215-388.235844 388.979787-388.235844s388.979787 173.818617 388.979787 388.235844c0 124.758297-59.198204 235.473777-150.825973 306.502413l2.982935 0c-9.804287 10.862384-15.939001 25.095536-15.939001 40.866716 0 18.083849 7.993037 34.17123 20.472243 45.391771L757.506771 793.833211l61.153741 0c3.800555-2.847858 7.429196-5.904471 11.14891-8.85466 5.107316-3.048426 9.715259-6.746651 13.719452-11.093651 110.141406-93.674379 180.122177-232.96975 180.122177-388.720891C1023.654121 103.035703 794.506416-125.673004 511.837804-125.673004zM511.837804 344.297294c-45.227019 0-81.89102 36.664001-81.89102 81.89102L429.946784 814.10898c0 45.228042 36.664001 81.89102 81.89102 81.89102s81.89102-36.661955 81.89102-81.89102l0-387.920666C593.728824 380.961295 557.064823 344.297294 511.837804 344.297294z"  horiz-adv-x="1024" />

    
    <glyph glyph-name="suit" unicode="&#58912;" d="M723.2 832h-723.2v-320h128v-576h768v576h128v320h-300.8zM672 768c0-89.6-70.4-160-160-160s-160 70.4-160 160h320zM832 0h-640v64h640v-64zM960 576h-128v-448h-640v448h-128v192h224c0-121.6 102.4-224 224-224s224 102.4 224 224h224v-192z"  horiz-adv-x="1024" />

    
    <glyph glyph-name="chongyinkafei" unicode="&#58913;" d="M968.192 344.064c0 60.700444-26.908444 103.708444-78.336 125.212444-29.184 12.288-60.700444 15.36-86.016 16.099556L803.84 486.172444 55.808 486.172444l0-295.651556c0-158.947556 76.003556-235.008 145.123556-265.728l-94.435556 0 0-50.688 663.552 0 0 50.688-109.852444 0c25.315556 10.752 48.355556 26.112 67.584 46.08 75.264 78.336 76.003556 200.419556 75.264 215.779556C907.491556 194.332444 968.192 251.904 968.192 344.064L968.192 344.064 968.192 344.064zM691.712 5.404444c-30.72-31.459556-72.192-46.876444-123.619556-46.876444L270.108444-41.472c-6.940444 0-162.816 11.491556-162.816 231.196444L107.292444 434.688l646.656 0 0-247.296C753.152 185.856 755.427556 71.452444 691.712 5.404444L691.712 5.404444 691.712 5.404444zM803.84 237.340444 803.84 433.891556c21.504-0.796444 45.283556-3.072 66.787556-12.288 32.256-13.824 46.819556-38.4 46.819556-78.336C917.504 266.524444 860.615111 242.688 803.84 237.340444L803.84 237.340444 803.84 237.340444zM242.460444 893.952l50.688 0 0-340.195556L242.460444 553.756444 242.460444 893.952 242.460444 893.952zM412.899556 893.952 463.644444 893.952l0-340.195556L412.899556 553.756444 412.899556 893.952 412.899556 893.952zM565.76 893.952l50.688 0 0-340.195556L565.76 553.756444 565.76 893.952 565.76 893.952zM565.76 893.952"  horiz-adv-x="1024" />

    
    <glyph glyph-name="tuijianliyou" unicode="&#58923;" d="M660.401489 860.958574C703.975957 860.958574 734.47109 844.976606 744.612821 827.560807 754.789522 810.145009 802.700454 720.128411 802.700454 659.138144 802.700454 598.147877 780.91322 501.591612 780.91322 501.591612 780.91322 501.591612 985.636283 501.591612 1033.582186 501.591612 1081.493118 501.591612 1123.598784 466.725044 1123.598784 417.380281 1123.598784 368.000546 1079.254943 328.028141 1079.254943 328.028141 1079.254943 328.028141 1095.236911 309.14354 1095.236911 269.940507 1095.236911 230.737475 1048.025409 201.326457 1048.025409 201.326457 1048.025409 201.326457 1075.652881 177.33602 1075.652881 143.973225 1075.652881 110.575458 1046.62655 77.527407 1046.62655 77.527407 1046.62655 77.527407 1050.613299 55.740173 1050.613299 23.811209 1050.613299-8.117756 1024.839316-58.161948 936.256549-58.161948 847.708753-58.161948 534.084492-58.161948 499.217923-58.161948 464.386326-58.161948 445.501725-38.892661 438.262628-33.052423 430.988559-27.247157 408.746696-21.441891 385.525631-21.441891 385.525631-21.441891 385.525631-45.082613 385.525631-52.706397 385.525631-60.33018 376.468017-92.993545 339.04853-92.993545 301.664014-92.993545 99.598784-92.993545 82.5327-92.993545 65.466617-92.993545 34.971483-83.551245 34.971483-46.90113 34.971483-10.251016 34.971483 365.097913 34.971483 382.898398 34.971483 400.663912 49.484649 432.627847 82.148014 432.627847 114.846351 432.627847 363.773368 432.627847 377.202418 432.627847 390.631468 432.627847 405.914006 414.092961 410.984871 416.610908 416.055736 419.163826 500.686725 512.467744 522.473959 553.139579 544.261193 593.776442 581.995424 659.487859 581.995424 659.487859 581.995424 659.487859 581.995424 781.468392 581.995424 799.618592 581.995424 817.768792 601.614426 860.958574 660.401489 860.958574ZM349.470032-17.734913C349.470032-10.11113 331.634575-58.022062 294.25006-58.022062 256.865544-58.022062 64.627301-58.022062 47.561217-58.022062 30.495133-58.022062 0-48.579762 0-11.929647 0 24.720467 0 400.069397 0 417.869881 0 435.635395 14.513166 467.599331 47.176531 467.599331 79.874868 467.599331 281.800212 467.599331 295.229261 467.599331 336.320754 467.599331 348.94546 449.309245 348.94546 418.464397 348.94546 152.82101 349.470032 48.186332 349.470032-17.734913Z"  horiz-adv-x="1159" />

    
    <glyph glyph-name="daifukuan" unicode="&#58898;" d="M1057.724841 177.191736C1041.047214 177.191736 1027.588782 163.727247 1027.514056 147.277829L1027.514056 147.049615 1027.514056 146.902185 1027.514056 146.827464 1027.514056-6.775163C1027.514056-40.203126 1000.294257-67.424947 966.866294-67.424947L387.077325-67.424942 386.927877-67.424942 121.299564-67.424942C87.72417-67.424942 60.577075-40.277852 60.577075-6.775163L60.577075 774.700436C60.577075 808.27583 87.72417 835.42292 121.299564 835.42292L966.791572 835.42292C1000.219535 835.42292 1027.514056 808.27583 1027.514056 774.700436L1027.514056 612.122829 1027.514056 611.975398C1027.514056 595.223045 1041.047209 581.683835 1057.724841 581.683835 1074.549898 581.683835 1088.014387 595.223045 1088.014387 611.975398L1088.014387 612.122829 1088.014387 780.833879C1088.014387 844.472627 1036.563758 896 972.769505 896L115.166121 896C51.527373 896 0 844.472627 0 780.833879L0-12.761175C0-76.549371 51.52535-128 115.166121-128L972.771528-128C1036.563763-128 1088.01641-76.549371 1088.01641-12.761175L1088.01641 147.275807C1087.941688 163.799951 1074.402473 177.191736 1057.724841 177.191736L1057.724841 177.191736 1057.724841 177.191736 1057.724841 177.191736ZM1079.713946 538.763878 638.124324 538.763878C578.443935 538.763878 529.988332 493.222518 524.004342 435.188081 523.33182 434.143964 522.885499 432.572733 522.806733 429.882665L522.806733 333.86007C522.806733 270.294026 574.332088 218.768671 638.126341 218.768671L1079.790694 218.768671C1143.431465 218.768671 1194.882094 270.294026 1194.882094 333.86007L1194.882094 414.69952 1194.882094 414.848968 1194.882094 423.601797C1194.878049 487.161784 1143.352694 538.763878 1079.713946 538.763878L1079.713946 538.763878 1079.713946 538.763878 1079.713946 538.763878ZM1134.305014 339.991496C1134.305014 306.636237 1107.083197 279.341711 1073.580508 279.341711L685.832684 279.341711 685.832684 279.341711 644.176983 279.341711C610.60159 279.341711 583.454495 306.563528 583.454495 339.991496L583.454495 417.539041C583.454495 450.967004 610.526863 478.18882 644.176983 478.18882L1073.580508 478.18882C1107.008471 478.18882 1134.305014 450.967004 1134.305014 417.539041L1134.305014 339.991496 1134.305014 339.991496 1134.305014 339.991496 1134.305014 339.991496ZM1039.108424 416.420198C1018.613801 416.420198 1002.010895 399.817293 1002.010895 379.397391 1002.010895 358.983552 1018.615823 342.459412 1039.108424 342.459412 1059.522263 342.459412 1076.125169 358.983552 1076.125169 379.397391 1076.125169 399.817293 1059.522263 416.420198 1039.108424 416.420198L1039.108424 416.420198 1039.108424 416.420198 1039.108424 416.420198Z"  horiz-adv-x="1229" />

    
    <glyph glyph-name="picture" unicode="&#58946;" d="M862.669 763.982c0 17.554-14.372 31.933-31.926 31.933h-733.529c-17.563 0-31.923-14.379-31.923-31.933v-574.302c0-17.555 14.361-31.915 31.923-31.915h27.257c17.563 0 31.925 14.359 31.925 31.915v481.592c0 17.555 14.362 31.916 31.925 31.916h642.423c17.554 0 31.926 14.379 31.926 31.933l0 28.86h-0.001zM921.498 641.696h-669.629c-20.554 0-37.22-16.648-37.22-37.201v-595.224c0-20.537 16.666-37.186 37.22-37.186h669.659c20.554 0 37.181 16.649 37.181 37.186l0 595.223c-0.024 20.554-16.66 37.202-37.21 37.202v0 0zM847.086 83.71h-520.835v185.96l111.632 111.624 186.003-185.994 111.635 111.589 111.602-111.589v-111.592l-0.037-0v0.001zM772.679 381.294c-41.122 0-74.377 33.313-74.377 74.386 0 41.148 33.255 74.408 74.377 74.408 41.148 0 74.408-33.259 74.408-74.408 0-41.073-33.259-74.386-74.408-74.386v0 0zM772.679 381.294z"  horiz-adv-x="1024" />

    
    <glyph glyph-name="waitreceive" unicode="&#58899;" d="M1117.591398 26.150538l-93.591398 0c-16.516129 0-27.526882 11.010753-27.526882 27.526882s11.010753 27.526882 27.526882 27.526882l66.064516 0L1090.064516 840.946237 512 840.946237l0-154.150538c0-16.516129-11.010753-27.526882-27.526882-27.526882L242.236559 659.268817C242.236559 659.268817 55.053763 620.731183 55.053763 428.043011l0-346.83871 93.591398 0c16.516129 0 27.526882-11.010753 27.526882-27.526882S165.16129 26.150538 148.645161 26.150538L27.526882 26.150538c-16.516129 0-27.526882 11.010753-27.526882 27.526882L0 428.043011c0 236.731183 236.731183 280.774194 236.731183 280.774194l214.709677 0L451.44086 868.473118C456.946237 884.989247 467.956989 896 484.473118 896l633.11828 0c16.516129 0 27.526882-11.010753 27.526882-27.526882l0-814.795699C1145.11828 37.16129 1128.602151 26.150538 1117.591398 26.150538zM368.860215-128c-88.086022 0-159.655914 71.569892-159.655914 159.655914 0 88.086022 71.569892 159.655914 159.655914 159.655914s159.655914-71.569892 159.655914-159.655914C528.516129-56.430108 456.946237-128 368.860215-128zM368.860215 136.258065c-55.053763 0-104.602151-44.043011-104.602151-104.602151 0-55.053763 44.043011-104.602151 104.602151-104.602151s104.602151 44.043011 104.602151 104.602151C473.462366 86.709677 429.419355 136.258065 368.860215 136.258065zM798.27957-128c-88.086022 0-159.655914 71.569892-159.655914 159.655914 0 88.086022 71.569892 159.655914 159.655914 159.655914 88.086022 0 159.655914-71.569892 159.655914-159.655914C952.430108-56.430108 880.860215-128 798.27957-128zM798.27957 136.258065c-55.053763 0-104.602151-44.043011-104.602151-104.602151 0-55.053763 44.043011-104.602151 104.602151-104.602151 55.053763 0 104.602151 44.043011 104.602151 104.602151C897.376344 86.709677 853.333333 136.258065 798.27957 136.258065zM666.150538 26.150538 500.989247 26.150538c-16.516129 0-27.526882 11.010753-27.526882 27.526882s11.010753 27.526882 27.526882 27.526882l170.666667 0c16.516129 0 27.526882-11.010753 27.526882-27.526882S682.666667 26.150538 666.150538 26.150538zM478.967742 290.408602 126.623656 290.408602c-16.516129 0-27.526882 11.010753-27.526882 27.526882S115.612903 345.462366 126.623656 345.462366l324.817204 0L451.44086 554.666667c0 16.516129 11.010753 27.526882 27.526882 27.526882s27.526882-11.010753 27.526882-27.526882l0-242.236559C506.494624 301.419355 495.483871 290.408602 478.967742 290.408602z"  horiz-adv-x="1146" />

    
    <glyph glyph-name="wodeshoucang" unicode="&#58900;" d="M512.038886-78.007399 512.038886-78.007399c-5.350868 0-10.492982 2.124384-14.270005 5.928013L82.570577 345.137901c-53.250808 55.480592-82.446757 127.959324-82.446757 204.319455 0 163.765831 132.208091 295.973922 294.688649 295.973922 83.73203 0 161.588235-34.44244 217.173205-95.2739 55.584969 60.83146 133.441175 95.2739 217.173205 95.2739 162.532747 0 294.740838-132.208091 294.740838-294.688649 0-82.262562-32.002878-157.574828-90.080621-213.369575l-407.511227-409.452439C522.530844-75.883015 517.389754-78.007399 512.038886-78.007399zM294.812469 805.139619c-140.261511 0-254.395968-114.134457-254.395968-254.395968 0-67.205635 25.209148-129.768529 70.957075-177.432085l400.665309-402.606521 393.556401 395.418818c50.417273 48.450479 78.013795 113.426329 78.013795 183.307909 0 141.573389-114.134457 255.707846-254.449179 255.707846-79.508845 0-152.853293-35.93749-201.223954-98.579179-7.659447-9.915837-24.238031-9.915837-31.897478 0C447.665763 769.202129 374.321314 805.139619 294.812469 805.139619z"  horiz-adv-x="1024" />

    
    <glyph glyph-name="jiantouarrow486" unicode="&#59050;" d="M171.15136 554.99776l684.02176 0-342.016-341.99552L171.15136 554.99776z"  horiz-adv-x="1024" />

    
    <glyph glyph-name="shouji" unicode="&#59026;" d="M798.723234 721.217255c0 60.576657-49.106418 109.683075-109.683075 109.683075l-354.708628 0c-60.576657 0-109.683075-49.106418-109.683075-109.683075l0-673.980161c0-60.576657 49.106418-109.683075 109.683075-109.683075l354.708628 0c60.576657 0 109.683075 49.106418 109.683075 109.683075L798.723234 721.217255zM264.557398 658.984888l494.256894 0 0-529.049305-494.256894 0L264.557398 658.984888zM334.356091 790.991388 689.016623 790.991388c38.548968 0 69.798692-31.249725 69.798692-69.798692l0-22.298865-494.256894 0 0 22.298865C264.557398 759.74064 295.807123 790.991388 334.356091 790.991388zM689.016623-22.53704 334.356091-22.53704c-38.548968 0-69.798692 31.249725-69.798692 69.798692l0 43.788296 494.256894 0 0-43.788296C758.814292 8.712685 727.564567-22.53704 689.016623-22.53704zM513.173732 66.056718c-16.70752 0-30.30112-13.5936-30.30112-30.30112 0-16.70752 13.5936-30.30112 30.30112-30.30112s30.299073 13.5936 30.299073 30.30112C543.472805 52.463118 529.881253 66.056718 513.173732 66.056718z"  horiz-adv-x="1024" />

    
    <glyph glyph-name="fankui" unicode="&#60304;" d="M992.956271-127.992906l-960.927178 0c-17.714653 0-32.030906 14.316252-32.030906 32.030906l0 0c0 17.714653 14.316252 32.030906 32.030906 32.030906l960.927178 0c17.714653 0 32.030906-14.316252 32.030906-32.030906l0 0C1024.987177-113.676654 1010.670924-127.992906 992.956271-127.992906zM1004.674895 778.188766 907.175942 875.687718C893.562807 889.183667 875.848154 896 858.016314 896c-17.812309 0-35.526962-6.816333-49.042442-20.312282L328.217318 394.911633 195.582024 112.84435c-11.406127-24.433331 7.617106-49.647904 31.230133-49.647904 4.902291 0 9.902237 1.093738 15.01937 3.398401L523.89881 199.132486l480.756554 480.756554C1031.783979 707.11531 1031.783979 751.060151 1004.674895 778.188766zM486.457806 252.374101l-198.298651-93.182593L381.361278 357.470629l348.238447 348.238447 105.096527-105.096527L486.457806 252.374101zM959.32382 725.240116l-79.374147-79.374147-105.096527 105.096527 79.374147 79.374147c0.390621 0.410152 1.601545 1.601545 3.808553 1.601545 2.207008 0 3.398401-1.191393 3.808553-1.601545l97.498953-97.498953c0.390621-0.390621 1.601545-1.601545 1.601545-3.808553S959.714441 725.630736 959.32382 725.240116z"  horiz-adv-x="1026" />

    
    <glyph glyph-name="xinshixin" unicode="&#58932;" d="M498.814288-54.274408c-0.316096 0.270939-53.359988 41.51392-123.473056 105.937263l0 0C305.228164 116.146406 218.076025 203.720006 149.257445 297.284375l0 0c-45.78874 62.391298-83.584771 127.341467-102.384948 191.192827l0 0c-7.947553 25.016728-12.297633 51.689196-12.297633 79.355108l0 0c0.015052 145.208408 118.159635 262.796061 263.804557 262.796061l0 0c55.211407 0.030104 104.853506-17.069175 144.621373-46.375775l0 0c27.966956-20.54623 51.087109-47.007967 68.351962-77.548846l0 0c17.249802 30.540879 40.369954 57.002616 68.321858 77.548846l0 0c39.797971 29.3066 89.425018 46.40588 144.621373 46.375775l0 0c145.644921 0 263.804557-117.587653 263.834661-262.796061l0 0c-0.015052-18.152933-1.926679-35.869352-5.418786-52.968631l0 0 0.82787 0-4.365133-14.856504c-1.008496-3.838307-2.107306-7.631457-3.326532-11.37945l0 0c-18.770072-63.896516-56.596208-128.906894-102.415052-191.328296l0 0c-45.894106-62.40635-99.91639-122.058151-151.590534-174.04839l0 0c-103.423548-103.965427-197.529796-177.179244-197.951257-177.49534l0 0-12.538468-9.738762L498.814288-54.274408 498.814288-54.274408zM140.662649 724.766368M500.168984-52.919712c-0.301044 0.255887-53.344936 41.51392-123.442952 105.967367l0 0c-70.113068 64.468499-157.295311 152.011995-226.113891 245.606468l0 0c-45.773688 62.346141-83.584771 127.29631-102.354843 191.132618l0 0c-7.962605 25.03178-12.312686 51.7193-12.312686 79.385212l0 0c0.015052 145.208408 118.159635 262.811113 263.774452 262.811113l0 0c55.226459 0.030104 104.853506-17.084228 144.636425-46.375775l0 0c27.966956-20.561282 51.072056-47.023019 68.33691-77.548846l0 0c17.264854 30.525827 40.385007 56.987564 68.33691 77.548846l0 0c39.813024 29.291548 89.409966 46.40588 144.636425 46.375775l0 0c145.644921 0 263.774452-117.602705 263.789505-262.811113l0 0c0-18.152933-1.851418-35.869352-5.418786-52.983684l0 0 0.842922 0-4.335029-14.841452c-1.023548-3.838307-2.152462-7.646509-3.341585-11.394502l0 0c-18.75502-63.896516-56.61126-128.921946-102.445157-191.298192l0 0c-45.848949-62.40635-99.886285-122.088255-151.605586-174.063443l0 0c-103.36334-103.950375-197.484639-177.14914-197.921152-177.510392l0 0-12.538468-9.738762L500.168984-52.919712 500.168984-52.919712z"  horiz-adv-x="1024" />

    
    <glyph glyph-name="mian" unicode="&#58914;" d="M1024.437226 761.888l0-46.112L385.557226 715.776c1.728-15.36 3.392-30.752 5.088-46.112l633.792 5.12-2.56-43.552-633.76-5.12c-10.176-35.424-30.56-60.096-61.088-117.824-20.48-46.88-20.544-88.64 40.704-135.776l549.792 0c-14.912-207.36-146.656-354.08-254.496-409.92-1.728-18.784-3.392-37.568-5.088-56.352-135.776 0-271.52 0-407.264 0 0 17.056 0 34.176 0 51.264C8.501226 95.52-5.546774 333.28 1.205226 369.92l206.272 0C160.373226 466.4 198.389226 561.216 258.293226 631.232c-13.6 0-34.848 0-48.416 0-53.824-62.784-86.88-131.936-58.464-215.2L108.149226 416.032c-25.632 50.4-14.208 117.024 48.352 215.2L11.381226 631.232 11.381226 667.2l151.68 5.024c-2.56 13.664-0.64 27.36-3.2 40.992l-148.48 0L11.381226 756.864 1024.437226 761.888 1024.437226 761.888zM201.909226 715.104c-2.56 0.928 4.992-39.744 4.992-40.736l48.864 0.736L250.197226 716.992 201.909226 715.104 201.909226 715.104zM294.709226 718.08C287.989226 714.816 294.229226 669.856 297.493226 669.92l48.928 0.384c1.792 32.576-3.808 44.896-8.608 49.6L294.709226 718.08 294.709226 718.08zM299.061226 626.112c-13.728-26.592-48.096-63.68-64.032-102.528-19.2-46.784-12.416-102.496 28.288-151.104 13.632 0 27.2 0 40.832 0-31.52 41.728-49.248 106.848-22.624 152.192 18.752 31.936 37.792 54.912 60.768 101.408C330.421226 626.976 310.933226 625.28 299.061226 626.112L299.061226 626.112zM44.213226 333.152c-0.288-20.768 7.104-61.152 18.272-91.328l12.576 0L75.061226 282.88l53.504 0 0-35.936-17.408-0.64 0 20.096-20.8 0 0-37.376L148.853226 229.024 148.853226 282.88l94.24 0 0-71.52L189.429226 211.36l0 34.624 17.664-0.032 0-16.896 19.04 2.08 0 34.08L169.013226 265.216l0-54.368L82.325226 210.848c34.688-95.104 103.52-175.04 212.864-222.368l0-41.664 321.12 0 0 38.848c97.792 58.016 170.752 125.376 214.688 220.352l-48.352 0 0 39.904 15.264 1.088 0-20.672 20.384 0L818.293226 262.4l-56.064 0 0-53.888-101.728 0 0 78.272 58.752 0 0-33.632-17.056-0.192-1.76 11.744-22.208 0 0-35.744 61.216 0L739.445226 288l94.368 0 2.656-43.904 14.976 0c11.872 27.424 23.68 61.6 21.984 89.056L44.213226 333.152 44.213226 333.152zM517.941226 284.32l-56.32 0.128 0-72.992 96.96 0 0 57.888 62.784 0 0-43.04-23.36 0 0 22.016-15.008-1.344 0-36.992 56.064 0 0 74.272-100.576 0 0-58.08-58.592 0 0 42.72 22.24-1.344 0.704-18.048 15.392 0L517.941226 284.32 517.941226 284.32zM323.029226 284.32l-56.32 0.128 0-72.992 96.96 0 0 57.888 62.784 0 0-43.04-23.392 0 0 22.016-14.976-1.344 0-36.992 56.032 0 0 74.272-100.576 0 0-58.08L284.981226 226.176l0 42.72 22.272-1.344 0.64-18.048 15.392 0L323.029226 284.32z"  horiz-adv-x="1026" />

    
    <glyph glyph-name="pingjia" unicode="&#58915;" d="M853.614913 443.784618c-15.134699 0-26.316366-12.287861-26.316366-27.39186l0-362.02015c0-36.046984-27.895327-66.757426-63.910589-66.757426L194.875874-12.384819c-36.016285 0-77.909417 30.710442-77.909417 66.757426L116.966457 624.562914c0 36.141128 41.893132 74.620511 77.909417 74.620511l306.135352 0c15.161305 0 27.355021 11.214413 27.355021 26.37981 0 15.161305-12.193717 26.349111-27.355021 26.349111L194.875874 751.912347c-71.938426 0-130.544195-55.097876-130.544195-127.349433l0-570.190307c0-72.189136 58.605769-119.481232 130.544195-119.481232l568.511062 0c71.999824 0 116.54639 47.292096 116.54639 119.481232L879.933325 416.392758C879.932302 431.496757 868.750635 443.784618 853.614913 443.784618L853.614913 443.784618 853.614913 443.784618zM935.157068 715.167468l-92.786243 92.88141c-30.459732 30.616298-84.068697 30.616298-114.560152 0l-75.727729-89.185228L248.484839 331.789894l-26.632567-231.984538 12.82919-11.181667 225.573525 30.766724 385.93584 404.861888 88.965218 72.761164C966.716854 628.666372 966.716854 683.513538 935.157068 715.167468L935.157068 715.167468 935.157068 715.167468zM286.209022 153.256732l6.600325 108.587114 100.053764-100.183723L286.209022 153.256732 286.209022 153.256732 286.209022 153.256732zM441.046506 189.938166 318.654992 312.486246l360.820835 359.651196 120.147404-120.399137L441.046506 189.938166 441.046506 189.938166 441.046506 189.938166zM896.960117 638.553557l-53.771671-53.865815L712.235952 715.833641l53.740972 53.893444c5.084808 5.121648 11.878538 7.898901 19.114336 7.898901 7.266497 0 14.028505-2.778276 19.114336-7.898901l92.692099-92.818989C907.481751 666.32404 907.481751 649.138636 896.960117 638.553557L896.960117 638.553557 896.960117 638.553557zM896.960117 638.553557"  horiz-adv-x="1024" />

    
    <glyph glyph-name="jiangpin" unicode="&#58926;" d="M859.149289 617.810812l-137.479389 0c17.647035 22.399813 28.176696 50.645462 28.176696 81.306274 0 72.583189-59.042769 131.631354-131.626357 131.631354-43.568461 0-82.246037-21.274976-106.218784-53.976204-23.973146 32.701229-62.65432 53.976204-106.217185 53.976204-72.583189 0-131.631354-59.048365-131.631354-131.631354 0-30.660612 10.535857-58.906461 28.179894-81.306274L164.849224 617.810812c-46.940974 0-85.130482-38.189907-85.130482-85.130482l0-105.876416c0-38.559657 25.780921-71.19493 61.007037-81.627856l0-291.027883c0-45.79695 37.25714-83.055488 83.054089-83.055488l278.299513 0c3.049932-1.293123 6.398662-2.010637 9.919275-2.010637s6.869343 0.717514 9.919275 2.010637L800.216445-28.907313c45.798748 0 83.05349 37.254541 83.05349 83.055488L883.269935 345.175859c35.227915 10.432926 61.008636 43.0682 61.008636 81.627856l0 105.876416C944.278371 579.620705 906.091462 617.810812 859.149289 617.810812zM618.215242 779.916904c44.55679 0 80.803016-36.246825 80.803016-80.800018 0-44.526611-36.206452-80.758046-80.718073-80.799418l-80.886959 0 0.004997 80.706081c0 0.063357 0 0.135908-0.004997 0.208259C537.478182 743.732637 573.700623 779.916904 618.215242 779.916904zM405.78427 779.916904c44.533206 0 80.764442-36.211848 80.799418-80.735461l0-80.863974L405.877807 618.317469c-0.076548 0-0.160291 0-0.248432 0-44.48364 0.082944-80.645522 36.298789-80.645522 80.799418C324.986251 743.67008 361.230678 779.916904 405.78427 779.916904zM130.553077 426.802316l0 105.875416c0 18.865609 15.435535 34.298146 34.298745 34.298146l321.732066 0 0-174.470709L164.854221 392.505169C145.988612 392.505169 130.553077 407.939105 130.553077 426.802316zM191.559715 54.147976 191.559715 341.672234l295.024174 0 0-319.744413L223.779669 21.927821C206.014314 21.927821 191.559715 36.378024 191.559715 54.147976zM800.220443 21.927821 537.418222 21.927821 537.418222 341.672234l295.021176 0 0-287.524259C832.439598 36.378024 817.988396 21.927821 800.220443 21.927821zM893.449034 426.802316c0-18.863211-15.435535-34.297147-34.299745-34.297147L537.418222 392.505169l0 174.473307 321.731066 0c18.86421 0 34.299745-15.434935 34.299745-34.298146L893.449034 426.802316z"  horiz-adv-x="1024" />

    
    <glyph glyph-name="02youhuiquan" unicode="&#58902;" d="M995.648 520.576C1023.232 542.592 1024 559.552 1024 588.864L1024 793.6C1024 850.112 985.728 896 938.624 896L85.312 896C38.208 896.064 0 850.24 0 793.6L0 588.8c0-30.592 1.792-51.008 28.416-68.288C67.328 498.88 113.792 454.976 113.792 384c0-92.16-48.192-121.92-83.648-136.384C5.184 228.864 0 198.08 0 179.264L0-25.6C0-82.112 38.208-128 85.312-128l853.312 0C985.728-128 1024-82.112 1024-25.6l0 204.864c0 37.184-7.104 49.088-28.352 68.224-62.208 38.4-85.376 72.64-85.376 136.576C910.272 447.936 932.032 479.744 995.648 520.576L995.648 520.576zM967.104 191.744l0-183.232c0-37.632-25.472-68.224-56.896-68.224L113.792-59.712c-31.424 0-56.896 30.592-56.896 68.224l0 183.232C123.008 219.968 170.688 294.912 170.688 384c0 89.024-47.616 164.032-113.792 192.256L56.896 759.552c0 37.696 25.472 68.224 56.896 68.224l796.48 0c31.36 0 56.896-30.528 56.896-68.224l0-183.232C900.992 548.032 853.376 473.088 853.376 384 853.376 294.912 900.992 219.968 967.104 191.744L967.104 191.744zM668.352 452.288 561.152 452.288l116.48 150.336c4.992 6.656 4.992 17.344 0 24l-18.24 24c-4.992 6.592-13.12 6.592-18.24 0L511.872 483.84 382.528 650.624c-4.992 6.528-13.12 6.528-18.112 0L346.304 626.816c-4.992-6.528-4.992-17.216 0-23.744l116.928-150.784L355.584 452.288c-7.872 0-14.208-7.68-14.208-17.088l0-34.112C341.312 391.68 347.712 384 355.584 384l128 0 0-68.224-128 0c-7.872 0-14.208-7.744-14.208-17.152l0-34.048c0-9.408 6.336-17.088 14.208-17.088l128 0 0-119.552c0-9.344 6.4-17.152 14.208-17.152l28.416 0c7.872 0 14.208 7.744 14.208 17.152l0 119.552 128 0c7.872 0 14.272 7.68 14.272 17.088L682.688 298.624c0 9.408-6.4 17.152-14.272 17.152l-128 0L540.416 384l128 0c7.872 0 14.272 7.68 14.272 17.088L682.688 435.2C682.624 444.672 676.224 452.288 668.352 452.288L668.352 452.288z"  horiz-adv-x="1025" />

    
    <glyph glyph-name="liulan" unicode="&#58935;" d="M467.000192-25.430453c0-6.407857 6.412866-12.820724 12.825733-12.820724 237.225967 0 423.16403 198.758787 423.16403 435.989763 0 6.412866-6.412866 12.820724-12.821976 12.820724-6.412866 0-12.825733-6.407857-12.825733-12.820724 0-224.405243-179.523944-410.343306-397.516321-410.343306C473.413059-12.60472 467.000192-19.017586 467.000192-25.430453L467.000192-25.430453zM467.000192-25.430453M941.457136 641.378672c-70.527756 115.409055-179.523944 205.171653-314.166589 237.230976-192.34592 51.294166-397.522583-12.820724-525.752361-166.703221l-83.349732 44.881299L11.775587 525.97087c0-25.647709 25.646457-38.468433 44.881299-19.234842l179.523944 141.056764-83.34848 38.468433c115.409055 128.234788 294.932999 185.936811 461.63622 141.055512 121.818165-32.054314 217.992377-108.996189 282.108519-211.58452C960.696988 513.147641 973.517711 384.917863 941.457136 269.51006c-64.114889-243.645095-320.580708-391.109716-564.219542-326.993575-121.821921 32.054314-217.992377 108.996189-282.112275 217.992377-6.40911 12.825733-25.647709 19.23359-38.468433 12.825733-12.820724-6.412866-19.234842-25.647709-12.820724-38.473442 70.527756-121.816912 179.523944-205.171653 314.166589-243.638834 51.294166-12.821976 96.175465-19.234842 141.056764-19.234842 224.405243 0 435.989763 153.877488 493.691786 378.282731C1031.219734 384.917863 1011.986144 519.560508 941.457136 641.378672L941.457136 641.378672zM941.457136 641.378672M511.880239 660.613515 511.880239 660.613515c-12.820724 0-25.646457-12.820724-25.646457-25.641448L486.233783 359.271406 216.94724 359.271406c-12.820724 0-25.647709-6.412866-25.647709-25.646457 0-12.825733 12.826985-25.647709 25.647709-25.647709l320.580708 0 0 326.994827C537.527948 647.792791 524.707224 660.613515 511.880239 660.613515L511.880239 660.613515zM511.880239 660.613515"  horiz-adv-x="1024" />

    
    </font>
</defs>
</svg>
